<?xml version="1.0" encoding="UTF-8" standalone="no"?>
<!DOCTYPE svg PUBLIC "-//W3C//DTD SVG 1.1//EN"
 "http://www.w3.org/Graphics/SVG/1.1/DTD/svg11.dtd">
<!-- Generated by graphviz version 14.1.1 (20251213.1925)
 -->
<!-- Title: advanced_tutorials Pages: 1 -->
<svg width="218pt" height="400pt"
 viewBox="0.00 0.00 218.00 400.00" xmlns="http://www.w3.org/2000/svg" xmlns:xlink="http://www.w3.org/1999/xlink">
<g id="graph0" class="graph" transform="scale(1 1) rotate(0) translate(4 395.5)">
<title>advanced_tutorials</title>
<polygon fill="white" stroke="none" points="-4,4 -4,-395.5 214,-395.5 214,4 -4,4"/>
<g id="clust1" class="cluster">
<title>cluster_advanced</title>
<path fill="#f3e5f5" stroke="black" d="M20,-8C20,-8 190,-8 190,-8 196,-8 202,-14 202,-20 202,-20 202,-371.5 202,-371.5 202,-377.5 196,-383.5 190,-383.5 190,-383.5 20,-383.5 20,-383.5 14,-383.5 8,-377.5 8,-371.5 8,-371.5 8,-20 8,-20 8,-14 14,-8 20,-8"/>
<text xml:space="preserve" text-anchor="middle" x="105" y="-366.2" font-family="Helvetica Bold" font-size="14.00">Advanced MDE Techniques</text>
</g>
<g id="clust2" class="cluster">
<title>cluster_atl</title>
<path fill="#e1bee7" stroke="black" d="M72,-204.5C72,-204.5 159,-204.5 159,-204.5 165,-204.5 171,-210.5 171,-216.5 171,-216.5 171,-340.5 171,-340.5 171,-346.5 165,-352.5 159,-352.5 159,-352.5 72,-352.5 72,-352.5 66,-352.5 60,-346.5 60,-340.5 60,-340.5 60,-216.5 60,-216.5 60,-210.5 66,-204.5 72,-204.5"/>
<text xml:space="preserve" text-anchor="middle" x="115.5" y="-335.2" font-family="Helvetica Bold" font-size="14.00">ATL Advanced</text>
</g>
<g id="clust3" class="cluster">
<title>cluster_mtl</title>
<path fill="#bbdefb" stroke="black" d="M60,-16C60,-16 149,-16 149,-16 155,-16 161,-22 161,-28 161,-28 161,-152 161,-152 161,-158 155,-164 149,-164 149,-164 60,-164 60,-164 54,-164 48,-158 48,-152 48,-152 48,-28 48,-28 48,-22 54,-16 60,-16"/>
<text xml:space="preserve" text-anchor="middle" x="104.5" y="-146.7" font-family="Helvetica Bold" font-size="14.00">MTL Advanced</text>
</g>
<!-- class2rel -->
<g id="node1" class="node">
<title>class2rel</title>
<path fill="#9c27b0" stroke="black" d="M127.38,-321.5C127.38,-321.5 80.62,-321.5 80.62,-321.5 74.62,-321.5 68.62,-315.5 68.62,-309.5 68.62,-309.5 68.62,-297.5 68.62,-297.5 68.62,-291.5 74.62,-285.5 80.62,-285.5 80.62,-285.5 127.38,-285.5 127.38,-285.5 133.38,-285.5 139.38,-291.5 139.38,-297.5 139.38,-297.5 139.38,-309.5 139.38,-309.5 139.38,-315.5 133.38,-321.5 127.38,-321.5"/>
<text xml:space="preserve" text-anchor="middle" x="104" y="-304.85" font-family="Helvetica,sans-Serif" font-size="12.00" fill="white">Class to</text>
<text xml:space="preserve" text-anchor="middle" x="104" y="-292.1" font-family="Helvetica,sans-Serif" font-size="12.00" fill="white">Relational</text>
</g>
<!-- complex -->
<g id="node2" class="node">
<title>complex</title>
<path fill="#ab47bc" stroke="black" d="M124,-248.5C124,-248.5 84,-248.5 84,-248.5 78,-248.5 72,-242.5 72,-236.5 72,-236.5 72,-224.5 72,-224.5 72,-218.5 78,-212.5 84,-212.5 84,-212.5 124,-212.5 124,-212.5 130,-212.5 136,-218.5 136,-224.5 136,-224.5 136,-236.5 136,-236.5 136,-242.5 130,-248.5 124,-248.5"/>
<text xml:space="preserve" text-anchor="middle" x="104" y="-231.85" font-family="Helvetica,sans-Serif" font-size="12.00">Complex</text>
<text xml:space="preserve" text-anchor="middle" x="104" y="-219.1" font-family="Helvetica,sans-Serif" font-size="12.00">Patterns</text>
</g>
<!-- class2rel&#45;&gt;complex -->
<g id="edge1" class="edge">
<title>class2rel&#45;&gt;complex</title>
<path fill="none" stroke="#9c27b0" stroke-dasharray="5,2" d="M104,-285.31C104,-277.73 104,-268.6 104,-260.04"/>
<polygon fill="#9c27b0" stroke="#9c27b0" points="107.5,-260.04 104,-250.04 100.5,-260.04 107.5,-260.04"/>
</g>
<!-- uml2swift -->
<g id="node3" class="node">
<title>uml2swift</title>
<path fill="#1976d2" stroke="black" d="M119.12,-133C119.12,-133 88.88,-133 88.88,-133 82.88,-133 76.88,-127 76.88,-121 76.88,-121 76.88,-109 76.88,-109 76.88,-103 82.88,-97 88.88,-97 88.88,-97 119.12,-97 119.12,-97 125.12,-97 131.12,-103 131.12,-109 131.12,-109 131.12,-121 131.12,-121 131.12,-127 125.12,-133 119.12,-133"/>
<text xml:space="preserve" text-anchor="middle" x="104" y="-116.35" font-family="Helvetica,sans-Serif" font-size="12.00" fill="white">UML to</text>
<text xml:space="preserve" text-anchor="middle" x="104" y="-103.6" font-family="Helvetica,sans-Serif" font-size="12.00" fill="white">Swift</text>
</g>
<!-- complex&#45;&gt;uml2swift -->
<g id="edge3" class="edge">
<title>complex&#45;&gt;uml2swift</title>
<path fill="none" stroke="#666666" stroke-dasharray="1,5" d="M104,-212.26C104,-194.35 104,-166 104,-144.7"/>
<polygon fill="#666666" stroke="#666666" points="107.5,-144.91 104,-134.91 100.5,-144.91 107.5,-144.91"/>
<text xml:space="preserve" text-anchor="middle" x="126.12" y="-185" font-family="Helvetica,sans-Serif" font-size="10.00">combined</text>
<text xml:space="preserve" text-anchor="middle" x="126.12" y="-173.75" font-family="Helvetica,sans-Serif" font-size="10.00">workflows</text>
</g>
<!-- codegen -->
<g id="node4" class="node">
<title>codegen</title>
<path fill="#42a5f5" stroke="black" d="M129.62,-60C129.62,-60 78.38,-60 78.38,-60 72.38,-60 66.38,-54 66.38,-48 66.38,-48 66.38,-36 66.38,-36 66.38,-30 72.38,-24 78.38,-24 78.38,-24 129.62,-24 129.62,-24 135.62,-24 141.62,-30 141.62,-36 141.62,-36 141.62,-48 141.62,-48 141.62,-54 135.62,-60 129.62,-60"/>
<text xml:space="preserve" text-anchor="middle" x="104" y="-43.35" font-family="Helvetica,sans-Serif" font-size="12.00">Multi&#45;File</text>
<text xml:space="preserve" text-anchor="middle" x="104" y="-30.6" font-family="Helvetica,sans-Serif" font-size="12.00">Generation</text>
</g>
<!-- uml2swift&#45;&gt;codegen -->
<g id="edge2" class="edge">
<title>uml2swift&#45;&gt;codegen</title>
<path fill="none" stroke="#1976d2" stroke-dasharray="5,2" d="M104,-96.81C104,-89.23 104,-80.1 104,-71.54"/>
<polygon fill="#1976d2" stroke="#1976d2" points="107.5,-71.54 104,-61.54 100.5,-71.54 107.5,-71.54"/>
</g>
</g>
</svg>
