<?xml version="1.0" encoding="UTF-8" standalone="no"?>
<!DOCTYPE svg PUBLIC "-//W3C//DTD SVG 1.1//EN"
 "http://www.w3.org/Graphics/SVG/1.1/DTD/svg11.dtd">
<!-- Generated by graphviz version 14.1.1 (20251213.1925)
 -->
<!-- Title: AQLCollectionOps2 Pages: 1 -->
<svg width="593pt" height="125pt"
 viewBox="0.00 0.00 593.00 125.00" xmlns="http://www.w3.org/2000/svg" xmlns:xlink="http://www.w3.org/1999/xlink">
<g id="graph0" class="graph" transform="scale(1 1) rotate(0) translate(4 121)">
<title>AQLCollectionOps2</title>
<polygon fill="white" stroke="none" points="-4,4 -4,-121 588.5,-121 588.5,4 -4,4"/>
<!-- input -->
<g id="node1" class="node">
<title>input</title>
<polygon fill="#e8f4f8" stroke="black" points="141.25,-63 54.25,-63 50.25,-59 50.25,-27 137.25,-27 141.25,-31 141.25,-63"/>
<polyline fill="none" stroke="black" points="137.25,-59 50.25,-59"/>
<polyline fill="none" stroke="black" points="137.25,-59 137.25,-27"/>
<polyline fill="none" stroke="black" points="137.25,-59 141.25,-63"/>
<text xml:space="preserve" text-anchor="middle" x="95.75" y="-40.73" font-family="Arial" font-size="12.00">[[a,b],[c],[d,e,f]]</text>
</g>
<!-- flatten -->
<g id="node2" class="node">
<title>flatten</title>
<polygon fill="#f8f4e8" stroke="black" points="287.75,-63 227.5,-63 227.5,-27 293.75,-27 293.75,-57 287.75,-63"/>
<polyline fill="none" stroke="black" points="287.75,-63 287.75,-57"/>
<polyline fill="none" stroke="black" points="293.75,-57 287.75,-57"/>
<text xml:space="preserve" text-anchor="middle" x="260.62" y="-40.73" font-family="Arial" font-size="12.00">&#45;&gt;flatten()</text>
</g>
<!-- input&#45;&gt;flatten -->
<g id="edge1" class="edge">
<title>input&#45;&gt;flatten</title>
<path fill="none" stroke="black" d="M141.69,-45C164.78,-45 192.81,-45 215.75,-45"/>
<polygon fill="black" stroke="black" points="215.71,-48.5 225.71,-45 215.71,-41.5 215.71,-48.5"/>
</g>
<!-- flat_out -->
<g id="node5" class="node">
<title>flat_out</title>
<polygon fill="#e8f8f5" stroke="black" points="402.75,-63 329.75,-63 329.75,-27 402.75,-27 402.75,-63"/>
<text xml:space="preserve" text-anchor="middle" x="366.25" y="-40.73" font-family="Arial" font-size="12.00">[a,b,c,d,e,f]</text>
</g>
<!-- flatten&#45;&gt;flat_out -->
<g id="edge2" class="edge">
<title>flatten&#45;&gt;flat_out</title>
<path fill="none" stroke="black" d="M294.13,-45C301.71,-45 309.94,-45 318.02,-45"/>
<polygon fill="black" stroke="black" points="317.75,-48.5 327.75,-45 317.75,-41.5 317.75,-48.5"/>
</g>
<!-- size -->
<g id="node3" class="node">
<title>size</title>
<polygon fill="#f8f4e8" stroke="black" points="488.5,-90 438.75,-90 438.75,-54 494.5,-54 494.5,-84 488.5,-90"/>
<polyline fill="none" stroke="black" points="488.5,-90 488.5,-84"/>
<polyline fill="none" stroke="black" points="494.5,-84 488.5,-84"/>
<text xml:space="preserve" text-anchor="middle" x="466.62" y="-67.72" font-family="Arial" font-size="12.00">&#45;&gt;size()</text>
</g>
<!-- size_out -->
<g id="node6" class="node">
<title>size_out</title>
<ellipse fill="#e8f8f5" stroke="black" cx="557.5" cy="-72" rx="27" ry="18"/>
<text xml:space="preserve" text-anchor="middle" x="557.5" y="-67.72" font-family="Arial" font-size="12.00">6</text>
</g>
<!-- size&#45;&gt;size_out -->
<g id="edge4" class="edge">
<title>size&#45;&gt;size_out</title>
<path fill="none" stroke="black" d="M494.77,-72C502.32,-72 510.65,-72 518.69,-72"/>
<polygon fill="black" stroke="black" points="518.61,-75.5 528.61,-72 518.61,-68.5 518.61,-75.5"/>
</g>
<!-- first -->
<g id="node4" class="node">
<title>first</title>
<polygon fill="#f8f4e8" stroke="black" points="487.62,-36 439.62,-36 439.62,0 493.62,0 493.62,-30 487.62,-36"/>
<polyline fill="none" stroke="black" points="487.62,-36 487.62,-30"/>
<polyline fill="none" stroke="black" points="493.62,-30 487.62,-30"/>
<text xml:space="preserve" text-anchor="middle" x="466.62" y="-13.72" font-family="Arial" font-size="12.00">&#45;&gt;first()</text>
</g>
<!-- first_out -->
<g id="node7" class="node">
<title>first_out</title>
<ellipse fill="#e8f8f5" stroke="black" cx="557.5" cy="-18" rx="27" ry="18"/>
<text xml:space="preserve" text-anchor="middle" x="557.5" y="-13.72" font-family="Arial" font-size="12.00">a</text>
</g>
<!-- first&#45;&gt;first_out -->
<g id="edge6" class="edge">
<title>first&#45;&gt;first_out</title>
<path fill="none" stroke="black" d="M493.81,-18C501.61,-18 510.31,-18 518.69,-18"/>
<polygon fill="black" stroke="black" points="518.68,-21.5 528.68,-18 518.68,-14.5 518.68,-21.5"/>
</g>
<!-- flat_out&#45;&gt;size -->
<g id="edge3" class="edge">
<title>flat_out&#45;&gt;size</title>
<path fill="none" stroke="black" d="M403.04,-54.82C410.96,-57 419.38,-59.31 427.39,-61.5"/>
<polygon fill="black" stroke="black" points="426.31,-64.84 436.88,-64.11 428.17,-58.09 426.31,-64.84"/>
</g>
<!-- flat_out&#45;&gt;first -->
<g id="edge5" class="edge">
<title>flat_out&#45;&gt;first</title>
<path fill="none" stroke="black" d="M403.04,-35.18C411.28,-32.92 420.05,-30.51 428.35,-28.23"/>
<polygon fill="black" stroke="black" points="429.09,-31.66 437.81,-25.64 427.24,-24.91 429.09,-31.66"/>
</g>
<!-- legendTitle -->
<g id="node8" class="node">
<title>legendTitle</title>
<text xml:space="preserve" text-anchor="middle" x="95.75" y="-93.58" font-family="Arial Bold" font-size="14.00">Collection Transformations</text>
</g>
</g>
</svg>
