<?xml version="1.0" encoding="UTF-8" standalone="no"?>
<!DOCTYPE svg PUBLIC "-//W3C//DTD SVG 1.1//EN"
 "http://www.w3.org/Graphics/SVG/1.1/DTD/svg11.dtd">
<!-- Generated by graphviz version 14.1.1 (20251213.1925)
 -->
<!-- Title: AQLTransformationPipeline Pages: 1 -->
<svg width="751pt" height="98pt"
 viewBox="0.00 0.00 751.00 98.00" xmlns="http://www.w3.org/2000/svg" xmlns:xlink="http://www.w3.org/1999/xlink">
<g id="graph0" class="graph" transform="scale(1 1) rotate(0) translate(4 94.25)">
<title>AQLTransformationPipeline</title>
<polygon fill="white" stroke="none" points="-4,4 -4,-94.25 746.5,-94.25 746.5,4 -4,4"/>
<!-- input -->
<g id="node1" class="node">
<title>input</title>
<polygon fill="#e8f4f8" stroke="black" points="136.75,-36.5 70.75,-36.5 66.75,-32.5 66.75,0 132.75,0 136.75,-4 136.75,-36.5"/>
<polyline fill="none" stroke="black" points="132.75,-32.5 66.75,-32.5"/>
<polyline fill="none" stroke="black" points="132.75,-32.5 132.75,0"/>
<polyline fill="none" stroke="black" points="132.75,-32.5 136.75,-36.5"/>
<text xml:space="preserve" text-anchor="middle" x="101.75" y="-21.1" font-family="Arial" font-size="12.00">Input</text>
<text xml:space="preserve" text-anchor="middle" x="101.75" y="-6.85" font-family="Arial" font-size="12.00">Collection</text>
</g>
<!-- step1 -->
<g id="node2" class="node">
<title>step1</title>
<polygon fill="#f8f4e8" stroke="black" points="308,-36.25 239.5,-36.25 239.5,-0.25 314,-0.25 314,-30.25 308,-36.25"/>
<polyline fill="none" stroke="black" points="308,-36.25 308,-30.25"/>
<polyline fill="none" stroke="black" points="314,-30.25 308,-30.25"/>
<text xml:space="preserve" text-anchor="middle" x="276.75" y="-13.97" font-family="Arial" font-size="12.00">&#45;&gt;select(...)</text>
</g>
<!-- input&#45;&gt;step1 -->
<g id="edge1" class="edge">
<title>input&#45;&gt;step1</title>
<path fill="none" stroke="black" d="M136.93,-18.25C162.89,-18.25 198.93,-18.25 227.78,-18.25"/>
<polygon fill="black" stroke="black" points="227.74,-21.75 237.74,-18.25 227.74,-14.75 227.74,-21.75"/>
</g>
<!-- step2 -->
<g id="node3" class="node">
<title>step2</title>
<polygon fill="#f8f4e8" stroke="black" points="421.5,-36.25 350,-36.25 350,-0.25 427.5,-0.25 427.5,-30.25 421.5,-36.25"/>
<polyline fill="none" stroke="black" points="421.5,-36.25 421.5,-30.25"/>
<polyline fill="none" stroke="black" points="427.5,-30.25 421.5,-30.25"/>
<text xml:space="preserve" text-anchor="middle" x="388.75" y="-13.97" font-family="Arial" font-size="12.00">&#45;&gt;collect(...)</text>
</g>
<!-- step1&#45;&gt;step2 -->
<g id="edge2" class="edge">
<title>step1&#45;&gt;step2</title>
<path fill="none" stroke="black" d="M314.38,-18.25C322.11,-18.25 330.39,-18.25 338.5,-18.25"/>
<polygon fill="black" stroke="black" points="338.26,-21.75 348.26,-18.25 338.26,-14.75 338.26,-21.75"/>
</g>
<!-- step3 -->
<g id="node4" class="node">
<title>step3</title>
<polygon fill="#f8f4e8" stroke="black" points="523.75,-36.25 463.5,-36.25 463.5,-0.25 529.75,-0.25 529.75,-30.25 523.75,-36.25"/>
<polyline fill="none" stroke="black" points="523.75,-36.25 523.75,-30.25"/>
<polyline fill="none" stroke="black" points="529.75,-30.25 523.75,-30.25"/>
<text xml:space="preserve" text-anchor="middle" x="496.62" y="-13.97" font-family="Arial" font-size="12.00">&#45;&gt;flatten()</text>
</g>
<!-- step2&#45;&gt;step3 -->
<g id="edge3" class="edge">
<title>step2&#45;&gt;step3</title>
<path fill="none" stroke="black" d="M427.97,-18.25C435.69,-18.25 443.87,-18.25 451.76,-18.25"/>
<polygon fill="black" stroke="black" points="451.54,-21.75 461.54,-18.25 451.54,-14.75 451.54,-21.75"/>
</g>
<!-- step4 -->
<g id="node5" class="node">
<title>step4</title>
<polygon fill="#f8f4e8" stroke="black" points="630.5,-36.25 565.75,-36.25 565.75,-0.25 636.5,-0.25 636.5,-30.25 630.5,-36.25"/>
<polyline fill="none" stroke="black" points="630.5,-36.25 630.5,-30.25"/>
<polyline fill="none" stroke="black" points="636.5,-30.25 630.5,-30.25"/>
<text xml:space="preserve" text-anchor="middle" x="601.12" y="-13.97" font-family="Arial" font-size="12.00">&#45;&gt;unique()</text>
</g>
<!-- step3&#45;&gt;step4 -->
<g id="edge4" class="edge">
<title>step3&#45;&gt;step4</title>
<path fill="none" stroke="black" d="M530.06,-18.25C537.71,-18.25 546.01,-18.25 554.14,-18.25"/>
<polygon fill="black" stroke="black" points="553.91,-21.75 563.91,-18.25 553.91,-14.75 553.91,-21.75"/>
</g>
<!-- output -->
<g id="node6" class="node">
<title>output</title>
<polygon fill="#e8f8f5" stroke="black" points="742.5,-36.5 676.5,-36.5 672.5,-32.5 672.5,0 738.5,0 742.5,-4 742.5,-36.5"/>
<polyline fill="none" stroke="black" points="738.5,-32.5 672.5,-32.5"/>
<polyline fill="none" stroke="black" points="738.5,-32.5 738.5,0"/>
<polyline fill="none" stroke="black" points="738.5,-32.5 742.5,-36.5"/>
<text xml:space="preserve" text-anchor="middle" x="707.5" y="-21.1" font-family="Arial" font-size="12.00">Result</text>
<text xml:space="preserve" text-anchor="middle" x="707.5" y="-6.85" font-family="Arial" font-size="12.00">Collection</text>
</g>
<!-- step4&#45;&gt;output -->
<g id="edge5" class="edge">
<title>step4&#45;&gt;output</title>
<path fill="none" stroke="black" d="M636.88,-18.25C644.53,-18.25 652.74,-18.25 660.75,-18.25"/>
<polygon fill="black" stroke="black" points="660.74,-21.75 670.74,-18.25 660.74,-14.75 660.74,-21.75"/>
</g>
<!-- legendTitle -->
<g id="node7" class="node">
<title>legendTitle</title>
<text xml:space="preserve" text-anchor="middle" x="101.75" y="-66.83" font-family="Arial Bold" font-size="14.00">AQL Transformation Pipeline</text>
</g>
</g>
</svg>
