<?xml version="1.0" encoding="UTF-8" standalone="no"?>
<!DOCTYPE svg PUBLIC "-//W3C//DTD SVG 1.1//EN"
 "http://www.w3.org/Graphics/SVG/1.1/DTD/svg11.dtd">
<!-- Generated by graphviz version 14.1.1 (20251213.1925)
 -->
<!-- Title: AQLMTLIntegration Pages: 1 -->
<svg width="472pt" height="362pt"
 viewBox="0.00 0.00 472.00 362.00" xmlns="http://www.w3.org/2000/svg" xmlns:xlink="http://www.w3.org/1999/xlink">
<g id="graph0" class="graph" transform="scale(1 1) rotate(0) translate(4 358)">
<title>AQLMTLIntegration</title>
<polygon fill="white" stroke="none" points="-4,4 -4,-358 468.25,-358 468.25,4 -4,4"/>
<g id="clust1" class="cluster">
<title>cluster_model</title>
<path fill="#e8f4f8" stroke="black" d="M166,-269.5C166,-269.5 244,-269.5 244,-269.5 250,-269.5 256,-275.5 256,-281.5 256,-281.5 256,-334 256,-334 256,-340 250,-346 244,-346 244,-346 166,-346 166,-346 160,-346 154,-340 154,-334 154,-334 154,-281.5 154,-281.5 154,-275.5 160,-269.5 166,-269.5"/>
<text xml:space="preserve" text-anchor="middle" x="205" y="-328.7" font-family="Times,serif" font-size="14.00">Model</text>
</g>
<g id="clust2" class="cluster">
<title>cluster_template</title>
<path fill="#f8f4e8" stroke="black" d="M111,-114.5C111,-114.5 299,-114.5 299,-114.5 305,-114.5 311,-120.5 311,-126.5 311,-126.5 311,-227.5 311,-227.5 311,-233.5 305,-239.5 299,-239.5 299,-239.5 111,-239.5 111,-239.5 105,-239.5 99,-233.5 99,-227.5 99,-227.5 99,-126.5 99,-126.5 99,-120.5 105,-114.5 111,-114.5"/>
<text xml:space="preserve" text-anchor="middle" x="205" y="-222.2" font-family="Times,serif" font-size="14.00">MTL Template</text>
</g>
<g id="clust3" class="cluster">
<title>cluster_aql</title>
<path fill="#e8f8f5" stroke="black" d="M20,-8C20,-8 338,-8 338,-8 344,-8 350,-14 350,-20 350,-20 350,-72.5 350,-72.5 350,-78.5 344,-84.5 338,-84.5 338,-84.5 20,-84.5 20,-84.5 14,-84.5 8,-78.5 8,-72.5 8,-72.5 8,-20 8,-20 8,-14 14,-8 20,-8"/>
<text xml:space="preserve" text-anchor="middle" x="179" y="-67.2" font-family="Times,serif" font-size="14.00">AQL Queries</text>
</g>
<!-- model -->
<g id="node1" class="node">
<title>model</title>
<polygon fill="none" stroke="black" points="247.5,-313.5 166.5,-313.5 162.5,-309.5 162.5,-277.5 243.5,-277.5 247.5,-281.5 247.5,-313.5"/>
<polyline fill="none" stroke="black" points="243.5,-309.5 162.5,-309.5"/>
<polyline fill="none" stroke="black" points="243.5,-309.5 243.5,-277.5"/>
<polyline fill="none" stroke="black" points="243.5,-309.5 247.5,-313.5"/>
<text xml:space="preserve" text-anchor="middle" x="205" y="-291.23" font-family="Arial" font-size="12.00">XMI Instance</text>
</g>
<!-- template -->
<g id="node2" class="node">
<title>template</title>
<polygon fill="none" stroke="black" points="297,-207 107,-207 107,-122.5 303,-122.5 303,-201 297,-207"/>
<polyline fill="none" stroke="black" points="297,-207 297,-201"/>
<polyline fill="none" stroke="black" points="303,-201 297,-201"/>
<text xml:space="preserve" text-anchor="middle" x="205" y="-193.5" font-family="Courier,monospace" font-size="10.00">[template generate(c : Class)]</text>
<text xml:space="preserve" text-anchor="middle" x="205" y="-180.75" font-family="Courier,monospace" font-size="10.00">public class [c.name/] {</text>
<text xml:space="preserve" text-anchor="middle" x="205" y="-168" font-family="Courier,monospace" font-size="10.00"> &#160;[for (p : c.properties)]</text>
<text xml:space="preserve" text-anchor="middle" x="205" y="-155.25" font-family="Courier,monospace" font-size="10.00"> &#160;&#160;&#160;[p.type/] [p.name/];</text>
<text xml:space="preserve" text-anchor="middle" x="205" y="-142.5" font-family="Courier,monospace" font-size="10.00"> &#160;[/for]</text>
<text xml:space="preserve" text-anchor="middle" x="205" y="-129.75" font-family="Courier,monospace" font-size="10.00">}</text>
</g>
<!-- model&#45;&gt;template -->
<g id="edge1" class="edge">
<title>model&#45;&gt;template</title>
<path fill="none" stroke="black" d="M205,-277.14C205,-262.14 205,-239.65 205,-218.8"/>
<polygon fill="black" stroke="black" points="208.5,-218.96 205,-208.96 201.5,-218.96 208.5,-218.96"/>
<text xml:space="preserve" text-anchor="middle" x="222.25" y="-250" font-family="Arial" font-size="10.00">process</text>
</g>
<!-- aql1 -->
<g id="node3" class="node">
<title>aql1</title>
<ellipse fill="none" stroke="black" cx="51" cy="-34" rx="34.98" ry="18"/>
<text xml:space="preserve" text-anchor="middle" x="51" y="-29.73" font-family="Arial" font-size="12.00">c.name</text>
</g>
<!-- template&#45;&gt;aql1 -->
<g id="edge2" class="edge">
<title>template&#45;&gt;aql1</title>
<path fill="none" stroke="black" stroke-dasharray="5,2" d="M142.06,-122.02C126.16,-110.52 109.5,-97.59 95,-84.5 86.6,-76.92 78.16,-67.85 70.94,-59.56"/>
<polygon fill="black" stroke="black" points="73.78,-57.49 64.64,-52.13 68.44,-62.02 73.78,-57.49"/>
</g>
<!-- aql2 -->
<g id="node4" class="node">
<title>aql2</title>
<ellipse fill="none" stroke="black" cx="154" cy="-34" rx="49.77" ry="18"/>
<text xml:space="preserve" text-anchor="middle" x="154" y="-29.73" font-family="Arial" font-size="12.00">c.properties</text>
</g>
<!-- template&#45;&gt;aql2 -->
<g id="edge3" class="edge">
<title>template&#45;&gt;aql2</title>
<path fill="none" stroke="black" stroke-dasharray="5,2" d="M188.58,-122.3C180.84,-102.77 171.82,-79.99 164.93,-62.6"/>
<polygon fill="black" stroke="black" points="168.24,-61.45 161.31,-53.44 161.73,-64.03 168.24,-61.45"/>
</g>
<!-- aql3 -->
<g id="node5" class="node">
<title>aql3</title>
<ellipse fill="none" stroke="black" cx="282" cy="-34" rx="59.79" ry="18"/>
<text xml:space="preserve" text-anchor="middle" x="282" y="-29.73" font-family="Arial" font-size="12.00">p.type, p.name</text>
</g>
<!-- template&#45;&gt;aql3 -->
<g id="edge4" class="edge">
<title>template&#45;&gt;aql3</title>
<path fill="none" stroke="black" stroke-dasharray="5,2" d="M229.79,-122.3C241.69,-102.39 255.61,-79.12 266.09,-61.61"/>
<polygon fill="black" stroke="black" points="268.91,-63.71 271.04,-53.33 262.9,-60.12 268.91,-63.71"/>
</g>
<!-- output -->
<g id="node6" class="node">
<title>output</title>
<polygon fill="#f4e8f8" stroke="black" points="458.25,-52 359.75,-52 359.75,-16 464.25,-16 464.25,-46 458.25,-52"/>
<polyline fill="none" stroke="black" points="458.25,-52 458.25,-46"/>
<polyline fill="none" stroke="black" points="464.25,-46 458.25,-46"/>
<text xml:space="preserve" text-anchor="middle" x="412" y="-29.73" font-family="Arial" font-size="12.00">Generated Code</text>
</g>
<!-- template&#45;&gt;output -->
<g id="edge5" class="edge">
<title>template&#45;&gt;output</title>
<path fill="none" stroke="black" d="M291.19,-122C312.26,-110.69 334.38,-97.85 354,-84.5 364.7,-77.22 375.68,-68.28 385.18,-60.01"/>
<polygon fill="black" stroke="black" points="387.49,-62.64 392.63,-53.37 382.84,-57.41 387.49,-62.64"/>
<text xml:space="preserve" text-anchor="middle" x="357.45" y="-95" font-family="Arial" font-size="10.00">generate</text>
</g>
<!-- legendTitle -->
<g id="node7" class="node">
<title>legendTitle</title>
<text xml:space="preserve" text-anchor="middle" x="347" y="-290.07" font-family="Arial Bold" font-size="14.00">AQL in MTL Templates</text>
</g>
</g>
</svg>
