<?xml version="1.0" encoding="UTF-8" standalone="no"?>
<!DOCTYPE svg PUBLIC "-//W3C//DTD SVG 1.1//EN"
 "http://www.w3.org/Graphics/SVG/1.1/DTD/svg11.dtd">
<!-- Generated by graphviz version 14.1.1 (20251213.1925)
 -->
<!-- Title: AQLLetBindings Pages: 1 -->
<svg width="577pt" height="98pt"
 viewBox="0.00 0.00 577.00 98.00" xmlns="http://www.w3.org/2000/svg" xmlns:xlink="http://www.w3.org/1999/xlink">
<g id="graph0" class="graph" transform="scale(1 1) rotate(0) translate(4 94)">
<title>AQLLetBindings</title>
<polygon fill="white" stroke="none" points="-4,4 -4,-94 572.99,-94 572.99,4 -4,4"/>
<!-- input -->
<g id="node1" class="node">
<title>input</title>
<ellipse fill="#e8f4f8" stroke="black" cx="72.87" cy="-18" rx="48.34" ry="18"/>
<text xml:space="preserve" text-anchor="middle" x="72.87" y="-13.72" font-family="Arial" font-size="12.00">Expression</text>
</g>
<!-- let1 -->
<g id="node2" class="node">
<title>let1</title>
<polygon fill="#f8f4e8" stroke="black" points="256.25,-36 181.75,-36 181.75,0 262.25,0 262.25,-30 256.25,-36"/>
<polyline fill="none" stroke="black" points="256.25,-36 256.25,-30"/>
<polyline fill="none" stroke="black" points="262.25,-30 256.25,-30"/>
<text xml:space="preserve" text-anchor="middle" x="222" y="-13.72" font-family="Arial" font-size="12.00">let x = expr1</text>
</g>
<!-- input&#45;&gt;let1 -->
<g id="edge1" class="edge">
<title>input&#45;&gt;let1</title>
<path fill="none" stroke="black" d="M121.64,-18C137.17,-18 154.46,-18 170.2,-18"/>
<polygon fill="black" stroke="black" points="169.83,-21.5 179.83,-18 169.83,-14.5 169.83,-21.5"/>
</g>
<!-- let2 -->
<g id="node3" class="node">
<title>let2</title>
<polygon fill="#f8f4e8" stroke="black" points="372.75,-36 298.25,-36 298.25,0 378.75,0 378.75,-30 372.75,-36"/>
<polyline fill="none" stroke="black" points="372.75,-36 372.75,-30"/>
<polyline fill="none" stroke="black" points="378.75,-30 372.75,-30"/>
<text xml:space="preserve" text-anchor="middle" x="338.5" y="-13.72" font-family="Arial" font-size="12.00">let y = expr2</text>
</g>
<!-- let1&#45;&gt;let2 -->
<g id="edge2" class="edge">
<title>let1&#45;&gt;let2</title>
<path fill="none" stroke="black" d="M262.73,-18C270.36,-18 278.46,-18 286.4,-18"/>
<polygon fill="black" stroke="black" points="286.33,-21.5 296.33,-18 286.33,-14.5 286.33,-21.5"/>
</g>
<!-- body -->
<g id="node4" class="node">
<title>body</title>
<polygon fill="#e8f8f5" stroke="black" points="462.75,-36 414.75,-36 414.75,0 468.75,0 468.75,-30 462.75,-36"/>
<polyline fill="none" stroke="black" points="462.75,-36 462.75,-30"/>
<polyline fill="none" stroke="black" points="468.75,-30 462.75,-30"/>
<text xml:space="preserve" text-anchor="middle" x="441.75" y="-13.72" font-family="Arial" font-size="12.00">in x + y</text>
</g>
<!-- let2&#45;&gt;body -->
<g id="edge3" class="edge">
<title>let2&#45;&gt;body</title>
<path fill="none" stroke="black" d="M379.23,-18C387.1,-18 395.34,-18 403.14,-18"/>
<polygon fill="black" stroke="black" points="403.02,-21.5 413.02,-18 403.02,-14.5 403.02,-21.5"/>
</g>
<!-- result -->
<g id="node5" class="node">
<title>result</title>
<ellipse fill="#f4e8f8" stroke="black" cx="536.87" cy="-18" rx="32.12" ry="18"/>
<text xml:space="preserve" text-anchor="middle" x="536.87" y="-13.72" font-family="Arial" font-size="12.00">Result</text>
</g>
<!-- body&#45;&gt;result -->
<g id="edge4" class="edge">
<title>body&#45;&gt;result</title>
<path fill="none" stroke="black" d="M469.19,-18C476.64,-18 484.95,-18 493.1,-18"/>
<polygon fill="black" stroke="black" points="492.9,-21.5 502.9,-18 492.9,-14.5 492.9,-21.5"/>
</g>
<!-- legendTitle -->
<g id="node6" class="node">
<title>legendTitle</title>
<text xml:space="preserve" text-anchor="middle" x="72.87" y="-66.58" font-family="Arial Bold" font-size="14.00">Let Bindings in AQL</text>
</g>
</g>
</svg>
