<?xml version="1.0" encoding="UTF-8" standalone="no"?>
<!DOCTYPE svg PUBLIC "-//W3C//DTD SVG 1.1//EN"
 "http://www.w3.org/Graphics/SVG/1.1/DTD/svg11.dtd">
<!-- Generated by graphviz version 14.1.1 (20251213.1925)
 -->
<!-- Title: AQLFiltering Pages: 1 -->
<svg width="499pt" height="238pt"
 viewBox="0.00 0.00 499.00 238.00" xmlns="http://www.w3.org/2000/svg" xmlns:xlink="http://www.w3.org/1999/xlink">
<g id="graph0" class="graph" transform="scale(1 1) rotate(0) translate(4 234.06)">
<title>AQLFiltering</title>
<polygon fill="white" stroke="none" points="-4,4 -4,-234.06 494.91,-234.06 494.91,4 -4,4"/>
<!-- input -->
<g id="node1" class="node">
<title>input</title>
<polygon fill="#e8f4f8" stroke="black" points="128.5,-145.06 49.5,-145.06 49.5,-108.56 128.5,-108.56 128.5,-145.06"/>
<text xml:space="preserve" text-anchor="middle" x="89" y="-129.66" font-family="Arial" font-size="12.00">Collection</text>
<text xml:space="preserve" text-anchor="middle" x="89" y="-115.41" font-family="Arial" font-size="12.00">[a, b, c, d, e]</text>
</g>
<!-- select -->
<g id="node2" class="node">
<title>select</title>
<polygon fill="#f8f4e8" stroke="black" points="347.58,-229.81 224.33,-229.81 224.33,-193.81 353.58,-193.81 353.58,-223.81 347.58,-229.81"/>
<polyline fill="none" stroke="black" points="347.58,-229.81 347.58,-223.81"/>
<polyline fill="none" stroke="black" points="353.58,-223.81 347.58,-223.81"/>
<text xml:space="preserve" text-anchor="middle" x="288.95" y="-207.53" font-family="Arial" font-size="12.00">&#45;&gt;select(x | condition)</text>
</g>
<!-- input&#45;&gt;select -->
<g id="edge1" class="edge">
<title>input&#45;&gt;select</title>
<path fill="none" stroke="black" d="M128.64,-134.97C144.53,-139.25 162.75,-145.39 178,-153.81 196.49,-164.01 195.79,-174.13 214,-184.81 216.16,-186.07 218.38,-187.29 220.65,-188.47"/>
<polygon fill="black" stroke="black" points="218.97,-191.55 229.5,-192.71 221.99,-185.23 218.97,-191.55"/>
</g>
<!-- reject -->
<g id="node3" class="node">
<title>reject</title>
<polygon fill="#f8f4e8" stroke="black" points="346.45,-175.81 225.45,-175.81 225.45,-139.81 352.45,-139.81 352.45,-169.81 346.45,-175.81"/>
<polyline fill="none" stroke="black" points="346.45,-175.81 346.45,-169.81"/>
<polyline fill="none" stroke="black" points="352.45,-169.81 346.45,-169.81"/>
<text xml:space="preserve" text-anchor="middle" x="288.95" y="-153.53" font-family="Arial" font-size="12.00">&#45;&gt;reject(x | condition)</text>
</g>
<!-- input&#45;&gt;reject -->
<g id="edge2" class="edge">
<title>input&#45;&gt;reject</title>
<path fill="none" stroke="black" d="M128.64,-132.86C152.87,-136.66 184.92,-141.67 213.91,-146.21"/>
<polygon fill="black" stroke="black" points="213.35,-149.67 223.77,-147.76 214.43,-142.75 213.35,-149.67"/>
</g>
<!-- exists -->
<g id="node6" class="node">
<title>exists</title>
<ellipse fill="#f4e8f8" stroke="black" cx="288.95" cy="-95.81" rx="74.95" ry="25.81"/>
<text xml:space="preserve" text-anchor="middle" x="288.95" y="-98.66" font-family="Arial" font-size="12.00">&#45;&gt;exists(x | cond)</text>
<text xml:space="preserve" text-anchor="middle" x="288.95" y="-84.41" font-family="Arial" font-size="12.00">= true/false</text>
</g>
<!-- input&#45;&gt;exists -->
<g id="edge5" class="edge">
<title>input&#45;&gt;exists</title>
<path fill="none" stroke="black" d="M128.64,-120.76C151.48,-117.18 181.26,-112.52 208.88,-108.19"/>
<polygon fill="black" stroke="black" points="209.32,-111.67 218.65,-106.66 208.23,-104.75 209.32,-111.67"/>
</g>
<!-- forall -->
<g id="node7" class="node">
<title>forall</title>
<ellipse fill="#f4e8f8" stroke="black" cx="288.95" cy="-25.81" rx="72.83" ry="25.81"/>
<text xml:space="preserve" text-anchor="middle" x="288.95" y="-28.66" font-family="Arial" font-size="12.00">&#45;&gt;forAll(x | cond)</text>
<text xml:space="preserve" text-anchor="middle" x="288.95" y="-14.41" font-family="Arial" font-size="12.00">= true/false</text>
</g>
<!-- input&#45;&gt;forall -->
<g id="edge6" class="edge">
<title>input&#45;&gt;forall</title>
<path fill="none" stroke="black" d="M123.99,-108.17C148.78,-94.7 183.27,-76.25 214,-60.81 220.25,-57.67 226.83,-54.45 233.38,-51.28"/>
<polygon fill="black" stroke="black" points="234.73,-54.52 242.23,-47.04 231.7,-48.2 234.73,-54.52"/>
</g>
<!-- select_out -->
<g id="node4" class="node">
<title>select_out</title>
<polygon fill="#e8f8f5" stroke="black" points="477.78,-230.06 413.03,-230.06 413.03,-193.56 477.78,-193.56 477.78,-230.06"/>
<text xml:space="preserve" text-anchor="middle" x="445.41" y="-214.66" font-family="Arial" font-size="12.00">Matching</text>
<text xml:space="preserve" text-anchor="middle" x="445.41" y="-200.41" font-family="Arial" font-size="12.00">[a, c]</text>
</g>
<!-- select&#45;&gt;select_out -->
<g id="edge3" class="edge">
<title>select&#45;&gt;select_out</title>
<path fill="none" stroke="black" d="M353.67,-211.81C369.8,-211.81 386.74,-211.81 401.56,-211.81"/>
<polygon fill="black" stroke="black" points="401.42,-215.31 411.42,-211.81 401.42,-208.31 401.42,-215.31"/>
</g>
<!-- reject_out -->
<g id="node5" class="node">
<title>reject_out</title>
<polygon fill="#e8f8f5" stroke="black" points="490.91,-175.06 399.91,-175.06 399.91,-138.56 490.91,-138.56 490.91,-175.06"/>
<text xml:space="preserve" text-anchor="middle" x="445.41" y="-159.66" font-family="Arial" font-size="12.00">Non&#45;matching</text>
<text xml:space="preserve" text-anchor="middle" x="445.41" y="-145.41" font-family="Arial" font-size="12.00">[b, d, e]</text>
</g>
<!-- reject&#45;&gt;reject_out -->
<g id="edge4" class="edge">
<title>reject&#45;&gt;reject_out</title>
<path fill="none" stroke="black" d="M352.78,-157.4C364.55,-157.33 376.79,-157.25 388.35,-157.17"/>
<polygon fill="black" stroke="black" points="388.14,-160.67 398.12,-157.11 388.09,-153.67 388.14,-160.67"/>
</g>
<!-- legendTitle -->
<g id="node8" class="node">
<title>legendTitle</title>
<text xml:space="preserve" text-anchor="middle" x="89" y="-175.38" font-family="Arial Bold" font-size="14.00">AQL Filtering Operations</text>
</g>
</g>
</svg>
