<?xml version="1.0" encoding="UTF-8" standalone="no"?>
<!DOCTYPE svg PUBLIC "-//W3C//DTD SVG 1.1//EN"
 "http://www.w3.org/Graphics/SVG/1.1/DTD/svg11.dtd">
<!-- Generated by graphviz version 14.1.1 (20251213.1925)
 -->
<!-- Title: AQLCollectionOps Pages: 1 -->
<svg width="482pt" height="137pt"
 viewBox="0.00 0.00 482.00 137.00" xmlns="http://www.w3.org/2000/svg" xmlns:xlink="http://www.w3.org/1999/xlink">
<g id="graph0" class="graph" transform="scale(1 1) rotate(0) translate(4 132.5)">
<title>AQLCollectionOps</title>
<polygon fill="white" stroke="none" points="-4,4 -4,-132.5 478,-132.5 478,4 -4,4"/>
<g id="clust1" class="cluster">
<title>cluster_filtering</title>
<path fill="#f8f4e8" stroke="black" d="M20,-8C20,-8 140,-8 140,-8 146,-8 152,-14 152,-20 152,-20 152,-72.5 152,-72.5 152,-78.5 146,-84.5 140,-84.5 140,-84.5 20,-84.5 20,-84.5 14,-84.5 8,-78.5 8,-72.5 8,-72.5 8,-20 8,-20 8,-14 14,-8 20,-8"/>
<text xml:space="preserve" text-anchor="middle" x="80" y="-67.2" font-family="Times,serif" font-size="14.00">Filtering</text>
</g>
<g id="clust2" class="cluster">
<title>cluster_testing</title>
<path fill="#e8f8f5" stroke="black" d="M172,-8C172,-8 290,-8 290,-8 296,-8 302,-14 302,-20 302,-20 302,-72.5 302,-72.5 302,-78.5 296,-84.5 290,-84.5 290,-84.5 172,-84.5 172,-84.5 166,-84.5 160,-78.5 160,-72.5 160,-72.5 160,-20 160,-20 160,-14 166,-8 172,-8"/>
<text xml:space="preserve" text-anchor="middle" x="231" y="-67.2" font-family="Times,serif" font-size="14.00">Testing</text>
</g>
<g id="clust3" class="cluster">
<title>cluster_transform</title>
<path fill="#f4e8f8" stroke="black" d="M322,-8C322,-8 446,-8 446,-8 452,-8 458,-14 458,-20 458,-20 458,-72.5 458,-72.5 458,-78.5 452,-84.5 446,-84.5 446,-84.5 322,-84.5 322,-84.5 316,-84.5 310,-78.5 310,-72.5 310,-72.5 310,-20 310,-20 310,-14 316,-8 322,-8"/>
<text xml:space="preserve" text-anchor="middle" x="384" y="-67.2" font-family="Times,serif" font-size="14.00">Transformation</text>
</g>
<!-- collection -->
<g id="node1" class="node">
<title>collection</title>
<polygon fill="#e8f4f8" stroke="black" points="266,-128.5 200,-128.5 196,-124.5 196,-92.5 262,-92.5 266,-96.5 266,-128.5"/>
<polyline fill="none" stroke="black" points="262,-124.5 196,-124.5"/>
<polyline fill="none" stroke="black" points="262,-124.5 262,-92.5"/>
<polyline fill="none" stroke="black" points="262,-124.5 266,-128.5"/>
<text xml:space="preserve" text-anchor="middle" x="231" y="-106.22" font-family="Arial" font-size="12.00">Collection</text>
</g>
<!-- select -->
<g id="node2" class="node">
<title>select</title>
<path fill="none" stroke="black" d="M59.5,-52C59.5,-52 28.5,-52 28.5,-52 22.5,-52 16.5,-46 16.5,-40 16.5,-40 16.5,-28 16.5,-28 16.5,-22 22.5,-16 28.5,-16 28.5,-16 59.5,-16 59.5,-16 65.5,-16 71.5,-22 71.5,-28 71.5,-28 71.5,-40 71.5,-40 71.5,-46 65.5,-52 59.5,-52"/>
<text xml:space="preserve" text-anchor="middle" x="44" y="-29.73" font-family="Arial" font-size="12.00">select()</text>
</g>
<!-- collection&#45;&gt;select -->
<g id="edge1" class="edge">
<title>collection&#45;&gt;select</title>
<path fill="none" stroke="black" d="M195.7,-106.66C157.58,-103.07 99.77,-95.93 81,-84.5 72.04,-79.04 64.53,-70.54 58.67,-62.11"/>
<polygon fill="black" stroke="black" points="61.66,-60.29 53.36,-53.71 55.74,-64.03 61.66,-60.29"/>
</g>
<!-- reject -->
<g id="node3" class="node">
<title>reject</title>
<path fill="none" stroke="black" d="M132,-52C132,-52 102,-52 102,-52 96,-52 90,-46 90,-40 90,-40 90,-28 90,-28 90,-22 96,-16 102,-16 102,-16 132,-16 132,-16 138,-16 144,-22 144,-28 144,-28 144,-40 144,-40 144,-46 138,-52 132,-52"/>
<text xml:space="preserve" text-anchor="middle" x="117" y="-29.73" font-family="Arial" font-size="12.00">reject()</text>
</g>
<!-- collection&#45;&gt;reject -->
<g id="edge2" class="edge">
<title>collection&#45;&gt;reject</title>
<path fill="none" stroke="black" d="M195.81,-102.32C182.53,-98.48 167.79,-92.79 156,-84.5 147.38,-78.44 139.72,-69.93 133.53,-61.68"/>
<polygon fill="black" stroke="black" points="136.42,-59.7 127.82,-53.51 130.68,-63.71 136.42,-59.7"/>
</g>
<!-- exists -->
<g id="node4" class="node">
<title>exists</title>
<path fill="none" stroke="black" d="M210.12,-52C210.12,-52 179.88,-52 179.88,-52 173.88,-52 167.88,-46 167.88,-40 167.88,-40 167.88,-28 167.88,-28 167.88,-22 173.88,-16 179.88,-16 179.88,-16 210.12,-16 210.12,-16 216.12,-16 222.12,-22 222.12,-28 222.12,-28 222.12,-40 222.12,-40 222.12,-46 216.12,-52 210.12,-52"/>
<text xml:space="preserve" text-anchor="middle" x="195" y="-29.73" font-family="Arial" font-size="12.00">exists()</text>
</g>
<!-- collection&#45;&gt;exists -->
<g id="edge3" class="edge">
<title>collection&#45;&gt;exists</title>
<path fill="none" stroke="black" d="M222.65,-92.22C218.41,-83.45 213.15,-72.57 208.37,-62.67"/>
<polygon fill="black" stroke="black" points="211.59,-61.29 204.09,-53.81 205.29,-64.33 211.59,-61.29"/>
</g>
<!-- forall -->
<g id="node5" class="node">
<title>forall</title>
<path fill="none" stroke="black" d="M282,-52C282,-52 252,-52 252,-52 246,-52 240,-46 240,-40 240,-40 240,-28 240,-28 240,-22 246,-16 252,-16 252,-16 282,-16 282,-16 288,-16 294,-22 294,-28 294,-28 294,-40 294,-40 294,-46 288,-52 282,-52"/>
<text xml:space="preserve" text-anchor="middle" x="267" y="-29.73" font-family="Arial" font-size="12.00">forAll()</text>
</g>
<!-- collection&#45;&gt;forall -->
<g id="edge4" class="edge">
<title>collection&#45;&gt;forall</title>
<path fill="none" stroke="black" d="M239.35,-92.22C243.59,-83.45 248.85,-72.57 253.63,-62.67"/>
<polygon fill="black" stroke="black" points="256.71,-64.33 257.91,-53.81 250.41,-61.29 256.71,-64.33"/>
</g>
<!-- collect -->
<g id="node6" class="node">
<title>collect</title>
<path fill="none" stroke="black" d="M364,-52C364,-52 330,-52 330,-52 324,-52 318,-46 318,-40 318,-40 318,-28 318,-28 318,-22 324,-16 330,-16 330,-16 364,-16 364,-16 370,-16 376,-22 376,-28 376,-28 376,-40 376,-40 376,-46 370,-52 364,-52"/>
<text xml:space="preserve" text-anchor="middle" x="347" y="-29.73" font-family="Arial" font-size="12.00">collect()</text>
</g>
<!-- collection&#45;&gt;collect -->
<g id="edge5" class="edge">
<title>collection&#45;&gt;collect</title>
<path fill="none" stroke="black" d="M266.42,-95.41C269.31,-94.38 272.19,-93.4 275,-92.5 288.55,-88.15 293.99,-92.13 306,-84.5 315.31,-78.59 323.54,-69.87 330.14,-61.38"/>
<polygon fill="black" stroke="black" points="332.96,-63.45 335.98,-53.3 327.29,-59.35 332.96,-63.45"/>
</g>
<!-- flatten -->
<g id="node7" class="node">
<title>flatten</title>
<path fill="none" stroke="black" d="M437.88,-52C437.88,-52 406.12,-52 406.12,-52 400.12,-52 394.12,-46 394.12,-40 394.12,-40 394.12,-28 394.12,-28 394.12,-22 400.12,-16 406.12,-16 406.12,-16 437.88,-16 437.88,-16 443.88,-16 449.88,-22 449.88,-28 449.88,-28 449.88,-40 449.88,-40 449.88,-46 443.88,-52 437.88,-52"/>
<text xml:space="preserve" text-anchor="middle" x="422" y="-29.73" font-family="Arial" font-size="12.00">flatten()</text>
</g>
<!-- collection&#45;&gt;flatten -->
<g id="edge6" class="edge">
<title>collection&#45;&gt;flatten</title>
<path fill="none" stroke="black" d="M266.26,-94.84C269.19,-93.95 272.12,-93.15 275,-92.5 298.91,-87.14 363.5,-96.27 385,-84.5 394.44,-79.34 402.16,-70.62 408.06,-61.93"/>
<polygon fill="black" stroke="black" points="410.91,-63.97 413.15,-53.62 404.95,-60.32 410.91,-63.97"/>
</g>
<!-- legendTitle -->
<g id="node8" class="node">
<title>legendTitle</title>
<text xml:space="preserve" text-anchor="middle" x="379" y="-105.08" font-family="Arial Bold" font-size="14.00">AQL Collection Operations</text>
</g>
</g>
</svg>
