<?xml version="1.0" encoding="UTF-8" standalone="no"?>
<!DOCTYPE svg PUBLIC "-//W3C//DTD SVG 1.1//EN"
 "http://www.w3.org/Graphics/SVG/1.1/DTD/svg11.dtd">
<!-- Generated by graphviz version 14.1.1 (20251213.1925)
 -->
<!-- Title: AQLQuerying Pages: 1 -->
<svg width="293pt" height="414pt"
 viewBox="0.00 0.00 293.00 414.00" xmlns="http://www.w3.org/2000/svg" xmlns:xlink="http://www.w3.org/1999/xlink">
<g id="graph0" class="graph" transform="scale(1 1) rotate(0) translate(4 409.5)">
<title>AQLQuerying</title>
<polygon fill="white" stroke="none" points="-4,4 -4,-409.5 289.12,-409.5 289.12,4 -4,4"/>
<g id="clust1" class="cluster">
<title>cluster_input</title>
<path fill="#e8f4f8" stroke="black" d="M29,-321C29,-321 119,-321 119,-321 125,-321 131,-327 131,-333 131,-333 131,-385.5 131,-385.5 131,-391.5 125,-397.5 119,-397.5 119,-397.5 29,-397.5 29,-397.5 23,-397.5 17,-391.5 17,-385.5 17,-385.5 17,-333 17,-333 17,-327 23,-321 29,-321"/>
<text xml:space="preserve" text-anchor="middle" x="74" y="-380.2" font-family="Times,serif" font-size="14.00">Input</text>
</g>
<g id="clust2" class="cluster">
<title>cluster_query</title>
<path fill="#f8f4e8" stroke="black" d="M30,-92.5C30,-92.5 129,-92.5 129,-92.5 135,-92.5 141,-98.5 141,-104.5 141,-104.5 141,-301 141,-301 141,-307 135,-313 129,-313 129,-313 30,-313 30,-313 24,-313 18,-307 18,-301 18,-301 18,-104.5 18,-104.5 18,-98.5 24,-92.5 30,-92.5"/>
<text xml:space="preserve" text-anchor="middle" x="79.5" y="-295.7" font-family="Times,serif" font-size="14.00">AQL Query Engine</text>
</g>
<g id="clust3" class="cluster">
<title>cluster_output</title>
<path fill="#e8f8f5" stroke="black" d="M20,-8C20,-8 128,-8 128,-8 134,-8 140,-14 140,-20 140,-20 140,-72.5 140,-72.5 140,-78.5 134,-84.5 128,-84.5 128,-84.5 20,-84.5 20,-84.5 14,-84.5 8,-78.5 8,-72.5 8,-72.5 8,-20 8,-20 8,-14 14,-8 20,-8"/>
<text xml:space="preserve" text-anchor="middle" x="74" y="-67.2" font-family="Times,serif" font-size="14.00">Output</text>
</g>
<!-- model -->
<g id="node1" class="node">
<title>model</title>
<polygon fill="none" stroke="black" points="122.5,-365 29.5,-365 25.5,-361 25.5,-329 118.5,-329 122.5,-333 122.5,-365"/>
<polyline fill="none" stroke="black" points="118.5,-361 25.5,-361"/>
<polyline fill="none" stroke="black" points="118.5,-361 118.5,-329"/>
<polyline fill="none" stroke="black" points="118.5,-361 122.5,-365"/>
<text xml:space="preserve" text-anchor="middle" x="74" y="-342.73" font-family="Arial" font-size="12.00">Model Instance</text>
</g>
<!-- nav -->
<g id="node2" class="node">
<title>nav</title>
<path fill="none" stroke="black" d="M98.88,-280.5C98.88,-280.5 49.12,-280.5 49.12,-280.5 43.13,-280.5 37.12,-274.5 37.12,-268.5 37.12,-268.5 37.12,-256.5 37.12,-256.5 37.12,-250.5 43.12,-244.5 49.12,-244.5 49.12,-244.5 98.88,-244.5 98.88,-244.5 104.88,-244.5 110.88,-250.5 110.88,-256.5 110.88,-256.5 110.88,-268.5 110.88,-268.5 110.88,-274.5 104.88,-280.5 98.88,-280.5"/>
<text xml:space="preserve" text-anchor="middle" x="74" y="-258.23" font-family="Arial" font-size="12.00">Navigation</text>
</g>
<!-- model&#45;&gt;nav -->
<g id="edge1" class="edge">
<title>model&#45;&gt;nav</title>
<path fill="none" stroke="black" d="M74,-328.5C74,-318 74,-304.39 74,-292.33"/>
<polygon fill="black" stroke="black" points="77.5,-292.48 74,-282.48 70.5,-292.48 77.5,-292.48"/>
</g>
<!-- filter -->
<g id="node3" class="node">
<title>filter</title>
<path fill="none" stroke="black" d="M91.75,-208.5C91.75,-208.5 56.25,-208.5 56.25,-208.5 50.25,-208.5 44.25,-202.5 44.25,-196.5 44.25,-196.5 44.25,-184.5 44.25,-184.5 44.25,-178.5 50.25,-172.5 56.25,-172.5 56.25,-172.5 91.75,-172.5 91.75,-172.5 97.75,-172.5 103.75,-178.5 103.75,-184.5 103.75,-184.5 103.75,-196.5 103.75,-196.5 103.75,-202.5 97.75,-208.5 91.75,-208.5"/>
<text xml:space="preserve" text-anchor="middle" x="74" y="-186.22" font-family="Arial" font-size="12.00">Filtering</text>
</g>
<!-- nav&#45;&gt;filter -->
<g id="edge2" class="edge">
<title>nav&#45;&gt;filter</title>
<path fill="none" stroke="black" d="M74,-244.2C74,-236.91 74,-228.23 74,-220.04"/>
<polygon fill="black" stroke="black" points="77.5,-220.12 74,-210.12 70.5,-220.12 77.5,-220.12"/>
</g>
<!-- transform -->
<g id="node4" class="node">
<title>transform</title>
<path fill="none" stroke="black" d="M109.75,-136.5C109.75,-136.5 38.25,-136.5 38.25,-136.5 32.25,-136.5 26.25,-130.5 26.25,-124.5 26.25,-124.5 26.25,-112.5 26.25,-112.5 26.25,-106.5 32.25,-100.5 38.25,-100.5 38.25,-100.5 109.75,-100.5 109.75,-100.5 115.75,-100.5 121.75,-106.5 121.75,-112.5 121.75,-112.5 121.75,-124.5 121.75,-124.5 121.75,-130.5 115.75,-136.5 109.75,-136.5"/>
<text xml:space="preserve" text-anchor="middle" x="74" y="-114.22" font-family="Arial" font-size="12.00">Transformation</text>
</g>
<!-- filter&#45;&gt;transform -->
<g id="edge3" class="edge">
<title>filter&#45;&gt;transform</title>
<path fill="none" stroke="black" d="M74,-172.2C74,-164.91 74,-156.23 74,-148.04"/>
<polygon fill="black" stroke="black" points="77.5,-148.12 74,-138.12 70.5,-148.12 77.5,-148.12"/>
</g>
<!-- results -->
<g id="node5" class="node">
<title>results</title>
<ellipse fill="none" stroke="black" cx="74" cy="-34" rx="58.36" ry="18"/>
<text xml:space="preserve" text-anchor="middle" x="74" y="-29.73" font-family="Arial" font-size="12.00">Query Results</text>
</g>
<!-- transform&#45;&gt;results -->
<g id="edge4" class="edge">
<title>transform&#45;&gt;results</title>
<path fill="none" stroke="black" d="M74,-100C74,-89.5 74,-75.89 74,-63.83"/>
<polygon fill="black" stroke="black" points="77.5,-63.98 74,-53.98 70.5,-63.98 77.5,-63.98"/>
</g>
<!-- legendTitle -->
<g id="node6" class="node">
<title>legendTitle</title>
<text xml:space="preserve" text-anchor="middle" x="213" y="-341.57" font-family="Arial Bold" font-size="14.00">AQL Query Pipeline</text>
</g>
</g>
</svg>
