<?xml version="1.0" encoding="UTF-8" standalone="no"?>
<!DOCTYPE svg PUBLIC "-//W3C//DTD SVG 1.1//EN"
 "http://www.w3.org/Graphics/SVG/1.1/DTD/svg11.dtd">
<!-- Generated by graphviz version 14.1.1 (20251213.1925)
 -->
<!-- Title: AQLNavigation Pages: 1 -->
<svg width="596pt" height="285pt"
 viewBox="0.00 0.00 596.00 285.00" xmlns="http://www.w3.org/2000/svg" xmlns:xlink="http://www.w3.org/1999/xlink">
<g id="graph0" class="graph" transform="scale(1 1) rotate(0) translate(4 280.62)">
<title>AQLNavigation</title>
<polygon fill="white" stroke="none" points="-4,4 -4,-280.62 592,-280.62 592,4 -4,4"/>
<g id="clust1" class="cluster">
<title>cluster_nav</title>
<path fill="#e8f4f8" stroke="black" d="M20,-8C20,-8 176,-8 176,-8 182,-8 188,-14 188,-20 188,-20 188,-256.62 188,-256.62 188,-262.62 182,-268.62 176,-268.62 176,-268.62 20,-268.62 20,-268.62 14,-268.62 8,-262.62 8,-256.62 8,-256.62 8,-20 8,-20 8,-14 14,-8 20,-8"/>
<text xml:space="preserve" text-anchor="middle" x="98" y="-251.32" font-family="Times,serif" font-size="14.00">Model Navigation</text>
</g>
<g id="clust2" class="cluster">
<title>cluster_syntax</title>
<path fill="#f8f4e8" stroke="black" d="M208,-192.12C208,-192.12 448,-192.12 448,-192.12 454,-192.12 460,-198.12 460,-204.12 460,-204.12 460,-256.62 460,-256.62 460,-262.62 454,-268.62 448,-268.62 448,-268.62 208,-268.62 208,-268.62 202,-268.62 196,-262.62 196,-256.62 196,-256.62 196,-204.12 196,-204.12 196,-198.12 202,-192.12 208,-192.12"/>
<text xml:space="preserve" text-anchor="middle" x="328" y="-251.32" font-family="Times,serif" font-size="14.00">Navigation Syntax</text>
</g>
<!-- root -->
<g id="node1" class="node">
<title>root</title>
<path fill="none" stroke="black" d="M121.38,-236.12C121.38,-236.12 56.63,-236.12 56.63,-236.12 50.62,-236.12 44.62,-230.12 44.62,-224.12 44.62,-224.12 44.62,-212.12 44.62,-212.12 44.62,-206.12 50.62,-200.12 56.62,-200.12 56.62,-200.12 121.38,-200.12 121.38,-200.12 127.38,-200.12 133.38,-206.12 133.38,-212.12 133.38,-212.12 133.38,-224.12 133.38,-224.12 133.38,-230.12 127.38,-236.12 121.38,-236.12"/>
<text xml:space="preserve" text-anchor="middle" x="89" y="-213.84" font-family="Arial" font-size="12.00">Root Element</text>
</g>
<!-- ref1 -->
<g id="node2" class="node">
<title>ref1</title>
<path fill="none" stroke="black" d="M75.75,-152.12C75.75,-152.12 28.25,-152.12 28.25,-152.12 22.25,-152.12 16.25,-146.12 16.25,-140.12 16.25,-140.12 16.25,-127.62 16.25,-127.62 16.25,-121.62 22.25,-115.62 28.25,-115.62 28.25,-115.62 75.75,-115.62 75.75,-115.62 81.75,-115.62 87.75,-121.62 87.75,-127.62 87.75,-127.62 87.75,-140.12 87.75,-140.12 87.75,-146.12 81.75,-152.12 75.75,-152.12"/>
<text xml:space="preserve" text-anchor="middle" x="52" y="-136.72" font-family="Arial" font-size="12.00">Reference</text>
<text xml:space="preserve" text-anchor="middle" x="52" y="-122.47" font-family="Arial" font-size="12.00">(single)</text>
</g>
<!-- root&#45;&gt;ref1 -->
<g id="edge1" class="edge">
<title>root&#45;&gt;ref1</title>
<path fill="none" stroke="black" d="M77.39,-199.74C74.02,-194.24 70.5,-188.05 67.75,-182.12 64.98,-176.14 62.46,-169.53 60.29,-163.19"/>
<polygon fill="black" stroke="black" points="63.64,-162.17 57.25,-153.73 56.98,-164.32 63.64,-162.17"/>
<text xml:space="preserve" text-anchor="middle" x="89.88" y="-172.62" font-family="Arial" font-size="10.00">.singleRef</text>
</g>
<!-- ref2 -->
<g id="node3" class="node">
<title>ref2</title>
<path fill="none" stroke="black" d="M168.25,-152.12C168.25,-152.12 117.75,-152.12 117.75,-152.12 111.75,-152.12 105.75,-146.12 105.75,-140.12 105.75,-140.12 105.75,-127.62 105.75,-127.62 105.75,-121.62 111.75,-115.62 117.75,-115.62 117.75,-115.62 168.25,-115.62 168.25,-115.62 174.25,-115.62 180.25,-121.62 180.25,-127.62 180.25,-127.62 180.25,-140.12 180.25,-140.12 180.25,-146.12 174.25,-152.12 168.25,-152.12"/>
<text xml:space="preserve" text-anchor="middle" x="143" y="-136.72" font-family="Arial" font-size="12.00">Reference</text>
<text xml:space="preserve" text-anchor="middle" x="143" y="-122.47" font-family="Arial" font-size="12.00">(collection)</text>
</g>
<!-- root&#45;&gt;ref2 -->
<g id="edge2" class="edge">
<title>root&#45;&gt;ref2</title>
<path fill="none" stroke="black" d="M100.47,-199.67C104.15,-194.07 108.25,-187.83 112,-182.12 116.34,-175.51 121.02,-168.37 125.4,-161.7"/>
<polygon fill="black" stroke="black" points="128.13,-163.92 130.69,-153.64 122.28,-160.08 128.13,-163.92"/>
<text xml:space="preserve" text-anchor="middle" x="139.53" y="-172.62" font-family="Arial" font-size="10.00">.multiRef</text>
</g>
<!-- attr -->
<g id="node4" class="node">
<title>attr</title>
<ellipse fill="#f8f4e8" stroke="black" cx="79" cy="-41.81" rx="42.6" ry="25.81"/>
<text xml:space="preserve" text-anchor="middle" x="79" y="-44.66" font-family="Arial" font-size="12.00">Attribute</text>
<text xml:space="preserve" text-anchor="middle" x="79" y="-30.41" font-family="Arial" font-size="12.00">(value)</text>
</g>
<!-- ref1&#45;&gt;attr -->
<g id="edge3" class="edge">
<title>ref1&#45;&gt;attr</title>
<path fill="none" stroke="black" d="M42.36,-115.5C38.61,-106.44 36,-95.25 39.75,-85.62 41.61,-80.84 44.28,-76.27 47.37,-72.01"/>
<polygon fill="black" stroke="black" points="49.98,-74.34 53.67,-64.4 44.59,-69.87 49.98,-74.34"/>
<text xml:space="preserve" text-anchor="middle" x="58.88" y="-88.12" font-family="Arial" font-size="10.00">.attribute</text>
</g>
<!-- ref2&#45;&gt;attr -->
<g id="edge4" class="edge">
<title>ref2&#45;&gt;attr</title>
<path fill="none" stroke="black" d="M130.66,-115.5C122.51,-104.04 111.59,-88.68 101.89,-75.02"/>
<polygon fill="black" stroke="black" points="104.94,-73.27 96.3,-67.15 99.24,-77.33 104.94,-73.27"/>
<text xml:space="preserve" text-anchor="middle" x="156.48" y="-88.12" font-family="Arial" font-size="10.00">&#45;&gt;collect(e | e.attr)</text>
</g>
<!-- dot -->
<g id="node5" class="node">
<title>dot</title>
<polygon fill="none" stroke="black" points="292.38,-236.12 203.62,-236.12 203.62,-200.12 298.38,-200.12 298.38,-230.12 292.38,-236.12"/>
<polyline fill="none" stroke="black" points="292.38,-236.12 292.38,-230.12"/>
<polyline fill="none" stroke="black" points="298.38,-230.12 292.38,-230.12"/>
<text xml:space="preserve" text-anchor="middle" x="251" y="-213.84" font-family="Arial" font-size="12.00">object.property</text>
</g>
<!-- arrow -->
<g id="node6" class="node">
<title>arrow</title>
<polygon fill="none" stroke="black" points="445.62,-236.12 316.38,-236.12 316.38,-200.12 451.62,-200.12 451.62,-230.12 445.62,-236.12"/>
<polyline fill="none" stroke="black" points="445.62,-236.12 445.62,-230.12"/>
<polyline fill="none" stroke="black" points="451.62,-230.12 445.62,-230.12"/>
<text xml:space="preserve" text-anchor="middle" x="384" y="-213.84" font-family="Arial" font-size="12.00">collection&#45;&gt;operation()</text>
</g>
<!-- legendTitle -->
<g id="node7" class="node">
<title>legendTitle</title>
<text xml:space="preserve" text-anchor="middle" x="529" y="-212.69" font-family="Arial Bold" font-size="14.00">AQL Navigation</text>
</g>
</g>
</svg>
