<?xml version="1.0" encoding="UTF-8" standalone="no"?>
<!DOCTYPE svg PUBLIC "-//W3C//DTD SVG 1.1//EN"
 "http://www.w3.org/Graphics/SVG/1.1/DTD/svg11.dtd">
<!-- Generated by graphviz version 14.1.1 (20251213.1925)
 -->
<!-- Title: AQLBasics Pages: 1 -->
<svg width="552pt" height="236pt"
 viewBox="0.00 0.00 552.00 236.00" xmlns="http://www.w3.org/2000/svg" xmlns:xlink="http://www.w3.org/1999/xlink">
<g id="graph0" class="graph" transform="scale(1 1) rotate(0) translate(4 232)">
<title>AQLBasics</title>
<polygon fill="white" stroke="none" points="-4,4 -4,-232 547.71,-232 547.71,4 -4,4"/>
<g id="clust1" class="cluster">
<title>cluster_model</title>
<path fill="#e8f4f8" stroke="black" d="M55.62,-8C55.62,-8 523.71,-8 523.71,-8 529.71,-8 535.71,-14 535.71,-20 535.71,-20 535.71,-73 535.71,-73 535.71,-79 529.71,-85 523.71,-85 523.71,-85 55.62,-85 55.62,-85 49.62,-85 43.62,-79 43.62,-73 43.62,-73 43.62,-20 43.62,-20 43.62,-14 49.62,-8 55.62,-8"/>
<text xml:space="preserve" text-anchor="middle" x="289.67" y="-67.7" font-family="Times,serif" font-size="14.00">Model Instance</text>
</g>
<g id="clust2" class="cluster">
<title>cluster_query</title>
<path fill="#f8f4e8" stroke="black" d="M20,-93C20,-93 163.75,-93 163.75,-93 169.75,-93 175.75,-99 175.75,-105 175.75,-105 175.75,-172 175.75,-172 175.75,-178 169.75,-184 163.75,-184 163.75,-184 20,-184 20,-184 14,-184 8,-178 8,-172 8,-172 8,-105 8,-105 8,-99 14,-93 20,-93"/>
<text xml:space="preserve" text-anchor="middle" x="91.88" y="-166.7" font-family="Times,serif" font-size="14.00">AQL Query</text>
</g>
<!-- company -->
<g id="node1" class="node">
<title>company</title>
<path fill="none" stroke="black" d="M120.12,-52.25C120.12,-52.25 63.63,-52.25 63.63,-52.25 57.62,-52.25 51.62,-46.25 51.62,-40.25 51.62,-40.25 51.62,-27.75 51.62,-27.75 51.62,-21.75 57.62,-15.75 63.62,-15.75 63.62,-15.75 120.12,-15.75 120.12,-15.75 126.12,-15.75 132.12,-21.75 132.12,-27.75 132.12,-27.75 132.12,-40.25 132.12,-40.25 132.12,-46.25 126.12,-52.25 120.12,-52.25"/>
<text xml:space="preserve" text-anchor="middle" x="91.88" y="-36.85" font-family="Arial" font-size="12.00">Company</text>
<text xml:space="preserve" text-anchor="middle" x="91.88" y="-22.6" font-family="Arial" font-size="12.00">&#39;Acme Corp&#39;</text>
</g>
<!-- dept -->
<g id="node2" class="node">
<title>dept</title>
<path fill="none" stroke="black" d="M346.98,-52.25C346.98,-52.25 285.23,-52.25 285.23,-52.25 279.23,-52.25 273.23,-46.25 273.23,-40.25 273.23,-40.25 273.23,-27.75 273.23,-27.75 273.23,-21.75 279.23,-15.75 285.23,-15.75 285.23,-15.75 346.98,-15.75 346.98,-15.75 352.98,-15.75 358.98,-21.75 358.98,-27.75 358.98,-27.75 358.98,-40.25 358.98,-40.25 358.98,-46.25 352.98,-52.25 346.98,-52.25"/>
<text xml:space="preserve" text-anchor="middle" x="316.11" y="-36.85" font-family="Arial" font-size="12.00">Department</text>
<text xml:space="preserve" text-anchor="middle" x="316.11" y="-22.6" font-family="Arial" font-size="12.00">&#39;Engineering&#39;</text>
</g>
<!-- company&#45;&gt;dept -->
<g id="edge1" class="edge">
<title>company&#45;&gt;dept</title>
<path fill="none" stroke="black" d="M132.61,-34C168.63,-34 222,-34 261.74,-34"/>
<polygon fill="black" stroke="black" points="261.56,-37.5 271.56,-34 261.56,-30.5 261.56,-37.5"/>
<text xml:space="preserve" text-anchor="middle" x="212.75" y="-36.5" font-family="Arial" font-size="10.00">departments</text>
</g>
<!-- emp -->
<g id="node3" class="node">
<title>emp</title>
<path fill="none" stroke="black" d="M515.71,-52.25C515.71,-52.25 469.71,-52.25 469.71,-52.25 463.71,-52.25 457.71,-46.25 457.71,-40.25 457.71,-40.25 457.71,-27.75 457.71,-27.75 457.71,-21.75 463.71,-15.75 469.71,-15.75 469.71,-15.75 515.71,-15.75 515.71,-15.75 521.71,-15.75 527.71,-21.75 527.71,-27.75 527.71,-27.75 527.71,-40.25 527.71,-40.25 527.71,-46.25 521.71,-52.25 515.71,-52.25"/>
<text xml:space="preserve" text-anchor="middle" x="492.71" y="-36.85" font-family="Arial" font-size="12.00">Employee</text>
<text xml:space="preserve" text-anchor="middle" x="492.71" y="-22.6" font-family="Arial" font-size="12.00">&#39;John&#39;</text>
</g>
<!-- dept&#45;&gt;emp -->
<g id="edge2" class="edge">
<title>dept&#45;&gt;emp</title>
<path fill="none" stroke="black" d="M359.37,-34C385.57,-34 419.22,-34 446.03,-34"/>
<polygon fill="black" stroke="black" points="445.93,-37.5 455.93,-34 445.93,-30.5 445.93,-37.5"/>
<text xml:space="preserve" text-anchor="middle" x="416.09" y="-36.5" font-family="Arial" font-size="10.00">employees</text>
</g>
<!-- query -->
<g id="node4" class="node">
<title>query</title>
<polygon fill="none" stroke="black" points="161.75,-151.38 16,-151.38 16,-100.62 167.75,-100.62 167.75,-145.38 161.75,-151.38"/>
<polyline fill="none" stroke="black" points="161.75,-151.38 161.75,-145.38"/>
<polyline fill="none" stroke="black" points="167.75,-145.38 161.75,-145.38"/>
<text xml:space="preserve" text-anchor="middle" x="91.88" y="-135.97" font-family="Arial" font-size="12.00">company.departments</text>
<text xml:space="preserve" text-anchor="middle" x="91.88" y="-121.72" font-family="Arial" font-size="12.00"> &#160;&#45;&gt;select(d | d.employees</text>
<text xml:space="preserve" text-anchor="middle" x="91.88" y="-107.47" font-family="Arial" font-size="12.00"> &#160;&#160;&#160;&#45;&gt;size() &gt; 5)</text>
</g>
<!-- result -->
<g id="node5" class="node">
<title>result</title>
<ellipse fill="#e8f8f5" stroke="black" cx="316.11" cy="-126" rx="58.36" ry="18"/>
<text xml:space="preserve" text-anchor="middle" x="316.11" y="-121.72" font-family="Arial" font-size="12.00">Query Results</text>
</g>
<!-- query&#45;&gt;result -->
<g id="edge3" class="edge">
<title>query&#45;&gt;result</title>
<path fill="none" stroke="black" d="M168.11,-126C193.33,-126 221.31,-126 246.04,-126"/>
<polygon fill="black" stroke="black" points="246,-129.5 256,-126 246,-122.5 246,-129.5"/>
<text xml:space="preserve" text-anchor="middle" x="212.75" y="-128.5" font-family="Arial" font-size="10.00">execute</text>
</g>
<!-- legendTitle -->
<g id="node6" class="node">
<title>legendTitle</title>
<text xml:space="preserve" text-anchor="middle" x="91.88" y="-204.57" font-family="Arial Bold" font-size="14.00">AQL Query Flow</text>
</g>
</g>
</svg>
