<?xml version="1.0" encoding="UTF-8" standalone="no"?>
<!DOCTYPE svg PUBLIC "-//W3C//DTD SVG 1.1//EN"
 "http://www.w3.org/Graphics/SVG/1.1/DTD/svg11.dtd">
<!-- Generated by graphviz version 14.1.1 (20251213.1925)
 -->
<!-- Title: AQLComplexQueries Pages: 1 -->
<svg width="572pt" height="200pt"
 viewBox="0.00 0.00 572.00 200.00" xmlns="http://www.w3.org/2000/svg" xmlns:xlink="http://www.w3.org/1999/xlink">
<g id="graph0" class="graph" transform="scale(1 1) rotate(0) translate(4 195.75)">
<title>AQLComplexQueries</title>
<polygon fill="white" stroke="none" points="-4,4 -4,-195.75 568.38,-195.75 568.38,4 -4,4"/>
<g id="clust1" class="cluster">
<title>cluster_patterns</title>
<path fill="#e8f4f8" stroke="black" d="M44,-92.5C44,-92.5 382,-92.5 382,-92.5 388,-92.5 394,-98.5 394,-104.5 394,-104.5 394,-171.75 394,-171.75 394,-177.75 388,-183.75 382,-183.75 382,-183.75 44,-183.75 44,-183.75 38,-183.75 32,-177.75 32,-171.75 32,-171.75 32,-104.5 32,-104.5 32,-98.5 38,-92.5 44,-92.5"/>
<text xml:space="preserve" text-anchor="middle" x="213" y="-166.45" font-family="Times,serif" font-size="14.00">Advanced Query Patterns</text>
</g>
<g id="clust2" class="cluster">
<title>cluster_uses</title>
<path fill="#e8f8f5" stroke="black" d="M20,-8C20,-8 390,-8 390,-8 396,-8 402,-14 402,-20 402,-20 402,-72.5 402,-72.5 402,-78.5 396,-84.5 390,-84.5 390,-84.5 20,-84.5 20,-84.5 14,-84.5 8,-78.5 8,-72.5 8,-72.5 8,-20 8,-20 8,-14 14,-8 20,-8"/>
<text xml:space="preserve" text-anchor="middle" x="205" y="-67.2" font-family="Times,serif" font-size="14.00">Use Cases</text>
</g>
<!-- let -->
<g id="node1" class="node">
<title>let</title>
<polygon fill="#f8f4e8" stroke="black" points="107.88,-144.12 40.12,-144.12 40.12,-107.62 113.88,-107.62 113.88,-138.12 107.88,-144.12"/>
<polyline fill="none" stroke="black" points="107.88,-144.12 107.88,-138.12"/>
<polyline fill="none" stroke="black" points="113.88,-138.12 107.88,-138.12"/>
<text xml:space="preserve" text-anchor="middle" x="77" y="-128.72" font-family="Arial" font-size="12.00">let x = expr</text>
<text xml:space="preserve" text-anchor="middle" x="77" y="-114.47" font-family="Arial" font-size="12.00">in body</text>
</g>
<!-- reports -->
<g id="node4" class="node">
<title>reports</title>
<path fill="none" stroke="black" d="M113.5,-52C113.5,-52 28.5,-52 28.5,-52 22.5,-52 16.5,-46 16.5,-40 16.5,-40 16.5,-28 16.5,-28 16.5,-22 22.5,-16 28.5,-16 28.5,-16 113.5,-16 113.5,-16 119.5,-16 125.5,-22 125.5,-28 125.5,-28 125.5,-40 125.5,-40 125.5,-46 119.5,-52 113.5,-52"/>
<text xml:space="preserve" text-anchor="middle" x="71" y="-29.73" font-family="Arial" font-size="12.00">Complex Reports</text>
</g>
<!-- let&#45;&gt;reports -->
<g id="edge1" class="edge">
<title>let&#45;&gt;reports</title>
<path fill="none" stroke="black" d="M75.84,-107.55C75.01,-95.11 73.88,-78.08 72.91,-63.64"/>
<polygon fill="black" stroke="black" points="76.41,-63.53 72.25,-53.79 69.43,-64 76.41,-63.53"/>
</g>
<!-- nested -->
<g id="node2" class="node">
<title>nested</title>
<polygon fill="#f8f4e8" stroke="black" points="249.62,-151.25 132.38,-151.25 132.38,-100.5 255.62,-100.5 255.62,-145.25 249.62,-151.25"/>
<polyline fill="none" stroke="black" points="249.62,-151.25 249.62,-145.25"/>
<polyline fill="none" stroke="black" points="255.62,-145.25 249.62,-145.25"/>
<text xml:space="preserve" text-anchor="middle" x="194" y="-135.85" font-family="Arial" font-size="12.00">collection</text>
<text xml:space="preserve" text-anchor="middle" x="194" y="-121.6" font-family="Arial" font-size="12.00"> &#160;&#45;&gt;collect(c | c.items</text>
<text xml:space="preserve" text-anchor="middle" x="194" y="-107.35" font-family="Arial" font-size="12.00"> &#160;&#160;&#160;&#45;&gt;select(i | cond))</text>
</g>
<!-- validation -->
<g id="node5" class="node">
<title>validation</title>
<path fill="none" stroke="black" d="M236.25,-52C236.25,-52 155.75,-52 155.75,-52 149.75,-52 143.75,-46 143.75,-40 143.75,-40 143.75,-28 143.75,-28 143.75,-22 149.75,-16 155.75,-16 155.75,-16 236.25,-16 236.25,-16 242.25,-16 248.25,-22 248.25,-28 248.25,-28 248.25,-40 248.25,-40 248.25,-46 242.25,-52 236.25,-52"/>
<text xml:space="preserve" text-anchor="middle" x="196" y="-29.73" font-family="Arial" font-size="12.00">Model Validation</text>
</g>
<!-- nested&#45;&gt;validation -->
<g id="edge2" class="edge">
<title>nested&#45;&gt;validation</title>
<path fill="none" stroke="black" d="M194.55,-100.32C194.8,-89.05 195.1,-75.62 195.36,-63.88"/>
<polygon fill="black" stroke="black" points="198.86,-64 195.58,-53.92 191.86,-63.84 198.86,-64"/>
</g>
<!-- cross -->
<g id="node3" class="node">
<title>cross</title>
<polygon fill="#f8f4e8" stroke="black" points="380,-144.12 274,-144.12 274,-107.62 386,-107.62 386,-138.12 380,-144.12"/>
<polyline fill="none" stroke="black" points="380,-144.12 380,-138.12"/>
<polyline fill="none" stroke="black" points="386,-138.12 380,-138.12"/>
<text xml:space="preserve" text-anchor="middle" x="330" y="-128.72" font-family="Arial" font-size="12.00">a&#45;&gt;cross(b)</text>
<text xml:space="preserve" text-anchor="middle" x="330" y="-114.47" font-family="Arial" font-size="12.00"> &#160;&#45;&gt;select((x,y) | ...)</text>
</g>
<!-- transform -->
<g id="node6" class="node">
<title>transform</title>
<path fill="none" stroke="black" d="M381.88,-52C381.88,-52 278.12,-52 278.12,-52 272.12,-52 266.12,-46 266.12,-40 266.12,-40 266.12,-28 266.12,-28 266.12,-22 272.12,-16 278.12,-16 278.12,-16 381.88,-16 381.88,-16 387.88,-16 393.88,-22 393.88,-28 393.88,-28 393.88,-40 393.88,-40 393.88,-46 387.88,-52 381.88,-52"/>
<text xml:space="preserve" text-anchor="middle" x="330" y="-29.73" font-family="Arial" font-size="12.00">Transformation Logic</text>
</g>
<!-- cross&#45;&gt;transform -->
<g id="edge3" class="edge">
<title>cross&#45;&gt;transform</title>
<path fill="none" stroke="black" d="M330,-107.55C330,-95.11 330,-78.08 330,-63.64"/>
<polygon fill="black" stroke="black" points="333.5,-63.79 330,-53.79 326.5,-63.79 333.5,-63.79"/>
</g>
<!-- legendTitle -->
<g id="node7" class="node">
<title>legendTitle</title>
<text xml:space="preserve" text-anchor="middle" x="484" y="-120.45" font-family="Arial Bold" font-size="14.00">Complex AQL Queries</text>
</g>
</g>
</svg>
