<?xml version="1.0" encoding="UTF-8" standalone="no"?>
<!DOCTYPE svg PUBLIC "-//W3C//DTD SVG 1.1//EN"
 "http://www.w3.org/Graphics/SVG/1.1/DTD/svg11.dtd">
<!-- Generated by graphviz version 14.1.1 (20251213.1925)
 -->
<!-- Title: ATLTransformation Pages: 1 -->
<svg width="134pt" height="340pt"
 viewBox="0.00 0.00 134.00 340.00" xmlns="http://www.w3.org/2000/svg" xmlns:xlink="http://www.w3.org/1999/xlink">
<g id="graph0" class="graph" transform="scale(1 1) rotate(0) translate(4 336)">
<title>ATLTransformation</title>
<polygon fill="white" stroke="none" points="-4,4 -4,-336 129.51,-336 129.51,4 -4,4"/>
<!-- FamiliesMM -->
<g id="node1" class="node">
<title>FamiliesMM</title>
<path fill="#e8f4f8" stroke="black" d="M85.38,-332C85.38,-332 40.13,-332 40.13,-332 34.13,-332 28.13,-326 28.13,-320 28.13,-320 28.13,-308 28.13,-308 28.13,-302 34.13,-296 40.13,-296 40.13,-296 85.38,-296 85.38,-296 91.38,-296 97.38,-302 97.38,-308 97.38,-308 97.38,-320 97.38,-320 97.38,-326 91.38,-332 85.38,-332"/>
<text xml:space="preserve" text-anchor="middle" x="62.76" y="-315.55" font-family="Helvetica,sans-Serif" font-size="11.00">Families</text>
<text xml:space="preserve" text-anchor="middle" x="62.76" y="-303.55" font-family="Helvetica,sans-Serif" font-size="11.00">Metamodel</text>
</g>
<!-- PersonsMM -->
<g id="node2" class="node">
<title>PersonsMM</title>
<path fill="#f8e8e8" stroke="black" d="M85.38,-36C85.38,-36 40.13,-36 40.13,-36 34.13,-36 28.13,-30 28.13,-24 28.13,-24 28.13,-12 28.13,-12 28.13,-6 34.13,0 40.13,0 40.13,0 85.38,0 85.38,0 91.38,0 97.38,-6 97.38,-12 97.38,-12 97.38,-24 97.38,-24 97.38,-30 91.38,-36 85.38,-36"/>
<text xml:space="preserve" text-anchor="middle" x="62.76" y="-19.55" font-family="Helvetica,sans-Serif" font-size="11.00">Persons</text>
<text xml:space="preserve" text-anchor="middle" x="62.76" y="-7.55" font-family="Helvetica,sans-Serif" font-size="11.00">Metamodel</text>
</g>
<!-- FamiliesModel -->
<g id="node3" class="node">
<title>FamiliesModel</title>
<path fill="#b8d4e8" stroke="black" d="M78.63,-260C78.63,-260 46.88,-260 46.88,-260 40.88,-260 34.88,-254 34.88,-248 34.88,-248 34.88,-236 34.88,-236 34.88,-230 40.88,-224 46.88,-224 46.88,-224 78.63,-224 78.63,-224 84.63,-224 90.63,-230 90.63,-236 90.63,-236 90.63,-248 90.63,-248 90.63,-254 84.63,-260 78.63,-260"/>
<text xml:space="preserve" text-anchor="middle" x="62.76" y="-243.55" font-family="Helvetica,sans-Serif" font-size="11.00">Families</text>
<text xml:space="preserve" text-anchor="middle" x="62.76" y="-231.55" font-family="Helvetica,sans-Serif" font-size="11.00">Model</text>
</g>
<!-- FamiliesModel&#45;&gt;FamiliesMM -->
<g id="edge3" class="edge">
<title>FamiliesModel&#45;&gt;FamiliesMM</title>
<path fill="none" stroke="#666666" stroke-dasharray="5,2" d="M62.76,-260.17C62.76,-267.45 62.76,-276.02 62.76,-284.17"/>
<polygon fill="#666666" stroke="#666666" points="59.26,-284.07 62.76,-294.07 66.26,-284.07 59.26,-284.07"/>
<text xml:space="preserve" text-anchor="middle" x="54.13" y="-274.12" font-family="Helvetica,sans-Serif" font-size="10.00">conformsTo</text>
</g>
<!-- ATL -->
<g id="node5" class="node">
<title>ATL</title>
<ellipse fill="#ffe8b8" stroke="black" cx="62.76" cy="-166" rx="62.76" ry="22.63"/>
<text xml:space="preserve" text-anchor="middle" x="62.76" y="-167.55" font-family="Helvetica,sans-Serif" font-size="11.00">ATL</text>
<text xml:space="preserve" text-anchor="middle" x="62.76" y="-155.55" font-family="Helvetica,sans-Serif" font-size="11.00">Transformation</text>
</g>
<!-- FamiliesModel&#45;&gt;ATL -->
<g id="edge1" class="edge">
<title>FamiliesModel&#45;&gt;ATL</title>
<path fill="none" stroke="#4a90e2" d="M62.76,-223.8C62.76,-216.66 62.76,-208.23 62.76,-200.05"/>
<polygon fill="#4a90e2" stroke="#4a90e2" points="66.26,-200.32 62.76,-190.32 59.26,-200.32 66.26,-200.32"/>
<text xml:space="preserve" text-anchor="middle" x="54.13" y="-202.44" font-family="Helvetica,sans-Serif" font-size="10.00">input</text>
</g>
<!-- PersonsModel -->
<g id="node4" class="node">
<title>PersonsModel</title>
<path fill="#e8c8c8" stroke="black" d="M78.63,-108C78.63,-108 46.88,-108 46.88,-108 40.88,-108 34.88,-102 34.88,-96 34.88,-96 34.88,-84 34.88,-84 34.88,-78 40.88,-72 46.88,-72 46.88,-72 78.63,-72 78.63,-72 84.63,-72 90.63,-78 90.63,-84 90.63,-84 90.63,-96 90.63,-96 90.63,-102 84.63,-108 78.63,-108"/>
<text xml:space="preserve" text-anchor="middle" x="62.76" y="-91.55" font-family="Helvetica,sans-Serif" font-size="11.00">Persons</text>
<text xml:space="preserve" text-anchor="middle" x="62.76" y="-79.55" font-family="Helvetica,sans-Serif" font-size="11.00">Model</text>
</g>
<!-- PersonsModel&#45;&gt;PersonsMM -->
<g id="edge4" class="edge">
<title>PersonsModel&#45;&gt;PersonsMM</title>
<path fill="none" stroke="#666666" stroke-dasharray="5,2" d="M62.76,-71.59C62.76,-64.28 62.76,-55.69 62.76,-47.56"/>
<polygon fill="#666666" stroke="#666666" points="66.26,-47.68 62.76,-37.68 59.26,-47.68 66.26,-47.68"/>
<text xml:space="preserve" text-anchor="middle" x="54.13" y="-50.12" font-family="Helvetica,sans-Serif" font-size="10.00">conformsTo</text>
</g>
<!-- ATL&#45;&gt;PersonsModel -->
<g id="edge2" class="edge">
<title>ATL&#45;&gt;PersonsModel</title>
<path fill="none" stroke="#e24a4a" d="M62.76,-143.15C62.76,-135.77 62.76,-127.48 62.76,-119.68"/>
<polygon fill="#e24a4a" stroke="#e24a4a" points="66.26,-119.91 62.76,-109.91 59.26,-119.91 66.26,-119.91"/>
<text xml:space="preserve" text-anchor="middle" x="54.13" y="-121.81" font-family="Helvetica,sans-Serif" font-size="10.00">output</text>
</g>
</g>
</svg>
