<?xml version="1.0" encoding="UTF-8" standalone="no"?>
<!DOCTYPE svg PUBLIC "-//W3C//DTD SVG 1.1//EN"
 "http://www.w3.org/Graphics/SVG/1.1/DTD/svg11.dtd">
<!-- Generated by graphviz version 14.1.1 (20251213.1925)
 -->
<!-- Title: CompleteMDEWorkflow Pages: 1 -->
<svg width="735pt" height="137pt"
 viewBox="0.00 0.00 735.00 137.00" xmlns="http://www.w3.org/2000/svg" xmlns:xlink="http://www.w3.org/1999/xlink">
<g id="graph0" class="graph" transform="scale(1 1) rotate(0) translate(4 133)">
<title>CompleteMDEWorkflow</title>
<polygon fill="white" stroke="none" points="-4,4 -4,-133 731.25,-133 731.25,4 -4,4"/>
<g id="clust1" class="cluster">
<title>cluster_define</title>
<path fill="#e8f4f8" stroke="black" d="M50.5,-8C50.5,-8 117.75,-8 117.75,-8 123.75,-8 129.75,-14 129.75,-20 129.75,-20 129.75,-73 129.75,-73 129.75,-79 123.75,-85 117.75,-85 117.75,-85 50.5,-85 50.5,-85 44.5,-85 38.5,-79 38.5,-73 38.5,-73 38.5,-20 38.5,-20 38.5,-14 44.5,-8 50.5,-8"/>
<text xml:space="preserve" text-anchor="middle" x="84.12" y="-67.7" font-family="Times,serif" font-size="14.00">1. Define</text>
</g>
<g id="clust2" class="cluster">
<title>cluster_create</title>
<path fill="#f8f4e8" stroke="black" d="M253.25,-8C253.25,-8 300.25,-8 300.25,-8 306.25,-8 312.25,-14 312.25,-20 312.25,-20 312.25,-73 312.25,-73 312.25,-79 306.25,-85 300.25,-85 300.25,-85 253.25,-85 253.25,-85 247.25,-85 241.25,-79 241.25,-73 241.25,-73 241.25,-20 241.25,-20 241.25,-14 247.25,-8 253.25,-8"/>
<text xml:space="preserve" text-anchor="middle" x="276.75" y="-67.7" font-family="Times,serif" font-size="14.00">2. Create</text>
</g>
<g id="clust3" class="cluster">
<title>cluster_transform</title>
<path fill="#e8f8f5" stroke="black" d="M378.75,-8C378.75,-8 446,-8 446,-8 452,-8 458,-14 458,-20 458,-20 458,-73 458,-73 458,-79 452,-85 446,-85 446,-85 378.75,-85 378.75,-85 372.75,-85 366.75,-79 366.75,-73 366.75,-73 366.75,-20 366.75,-20 366.75,-14 372.75,-8 378.75,-8"/>
<text xml:space="preserve" text-anchor="middle" x="412.38" y="-67.7" font-family="Times,serif" font-size="14.00">3. Transform</text>
</g>
<g id="clust4" class="cluster">
<title>cluster_generate</title>
<path fill="#f4e8f8" stroke="black" d="M517,-8C517,-8 707.25,-8 707.25,-8 713.25,-8 719.25,-14 719.25,-20 719.25,-20 719.25,-73 719.25,-73 719.25,-79 713.25,-85 707.25,-85 707.25,-85 517,-85 517,-85 511,-85 505,-79 505,-73 505,-73 505,-20 505,-20 505,-14 511,-8 517,-8"/>
<text xml:space="preserve" text-anchor="middle" x="612.12" y="-67.7" font-family="Times,serif" font-size="14.00">4. Generate</text>
</g>
<!-- ecore -->
<g id="node1" class="node">
<title>ecore</title>
<polygon fill="none" stroke="black" points="121.75,-52.25 50.5,-52.25 46.5,-48.25 46.5,-15.75 117.75,-15.75 121.75,-19.75 121.75,-52.25"/>
<polyline fill="none" stroke="black" points="117.75,-48.25 46.5,-48.25"/>
<polyline fill="none" stroke="black" points="117.75,-48.25 117.75,-15.75"/>
<polyline fill="none" stroke="black" points="117.75,-48.25 121.75,-52.25"/>
<text xml:space="preserve" text-anchor="middle" x="84.12" y="-36.85" font-family="Arial" font-size="12.00">Ecore</text>
<text xml:space="preserve" text-anchor="middle" x="84.12" y="-22.6" font-family="Arial" font-size="12.00">Metamodel</text>
</g>
<!-- xmi -->
<g id="node2" class="node">
<title>xmi</title>
<polygon fill="none" stroke="black" points="304.25,-52.25 253.25,-52.25 249.25,-48.25 249.25,-15.75 300.25,-15.75 304.25,-19.75 304.25,-52.25"/>
<polyline fill="none" stroke="black" points="300.25,-48.25 249.25,-48.25"/>
<polyline fill="none" stroke="black" points="300.25,-48.25 300.25,-15.75"/>
<polyline fill="none" stroke="black" points="300.25,-48.25 304.25,-52.25"/>
<text xml:space="preserve" text-anchor="middle" x="276.75" y="-36.85" font-family="Arial" font-size="12.00">XMI</text>
<text xml:space="preserve" text-anchor="middle" x="276.75" y="-22.6" font-family="Arial" font-size="12.00">Models</text>
</g>
<!-- ecore&#45;&gt;xmi -->
<g id="edge1" class="edge">
<title>ecore&#45;&gt;xmi</title>
<path fill="none" stroke="black" d="M121.88,-34C155.17,-34 204.03,-34 237.71,-34"/>
<polygon fill="black" stroke="black" points="237.43,-37.5 247.43,-34 237.43,-30.5 237.43,-37.5"/>
<text xml:space="preserve" text-anchor="middle" x="208.75" y="-36.5" font-family="Arial" font-size="10.00">instantiate</text>
</g>
<!-- atl -->
<g id="node3" class="node">
<title>atl</title>
<polygon fill="none" stroke="black" points="444,-52.25 374.75,-52.25 374.75,-15.75 450,-15.75 450,-46.25 444,-52.25"/>
<polyline fill="none" stroke="black" points="444,-52.25 444,-46.25"/>
<polyline fill="none" stroke="black" points="450,-46.25 444,-46.25"/>
<text xml:space="preserve" text-anchor="middle" x="412.38" y="-36.85" font-family="Arial" font-size="12.00">ATL</text>
<text xml:space="preserve" text-anchor="middle" x="412.38" y="-22.6" font-family="Arial" font-size="12.00">Transforms</text>
</g>
<!-- xmi&#45;&gt;atl -->
<g id="edge2" class="edge">
<title>xmi&#45;&gt;atl</title>
<path fill="none" stroke="black" d="M304.47,-34C321.21,-34 343.29,-34 363.03,-34"/>
<polygon fill="black" stroke="black" points="362.81,-37.5 372.81,-34 362.81,-30.5 362.81,-37.5"/>
<text xml:space="preserve" text-anchor="middle" x="339.5" y="-36.5" font-family="Arial" font-size="10.00">process</text>
</g>
<!-- mtl -->
<g id="node4" class="node">
<title>mtl</title>
<polygon fill="none" stroke="black" points="577.75,-52.25 513,-52.25 513,-15.75 583.75,-15.75 583.75,-46.25 577.75,-52.25"/>
<polyline fill="none" stroke="black" points="577.75,-52.25 577.75,-46.25"/>
<polyline fill="none" stroke="black" points="583.75,-46.25 577.75,-46.25"/>
<text xml:space="preserve" text-anchor="middle" x="548.38" y="-36.85" font-family="Arial" font-size="12.00">MTL</text>
<text xml:space="preserve" text-anchor="middle" x="548.38" y="-22.6" font-family="Arial" font-size="12.00">Templates</text>
</g>
<!-- atl&#45;&gt;mtl -->
<g id="edge3" class="edge">
<title>atl&#45;&gt;mtl</title>
<path fill="none" stroke="black" d="M450.35,-34C466.21,-34 484.9,-34 501.62,-34"/>
<polygon fill="black" stroke="black" points="501.31,-37.5 511.31,-34 501.31,-30.5 501.31,-37.5"/>
<text xml:space="preserve" text-anchor="middle" x="481.5" y="-36.5" font-family="Arial" font-size="10.00">output</text>
</g>
<!-- code -->
<g id="node5" class="node">
<title>code</title>
<polygon fill="#fff8e8" stroke="black" points="705.25,-52.25 657.25,-52.25 657.25,-15.75 711.25,-15.75 711.25,-46.25 705.25,-52.25"/>
<polyline fill="none" stroke="black" points="705.25,-52.25 705.25,-46.25"/>
<polyline fill="none" stroke="black" points="711.25,-46.25 705.25,-46.25"/>
<text xml:space="preserve" text-anchor="middle" x="684.25" y="-36.85" font-family="Arial" font-size="12.00">Swift</text>
<text xml:space="preserve" text-anchor="middle" x="684.25" y="-22.6" font-family="Arial" font-size="12.00">Code</text>
</g>
<!-- mtl&#45;&gt;code -->
<g id="edge4" class="edge">
<title>mtl&#45;&gt;code</title>
<path fill="none" stroke="black" d="M584.2,-34C603.06,-34 626.38,-34 645.66,-34"/>
<polygon fill="black" stroke="black" points="645.55,-37.5 655.55,-34 645.55,-30.5 645.55,-37.5"/>
<text xml:space="preserve" text-anchor="middle" x="620.5" y="-36.5" font-family="Arial" font-size="10.00">generate</text>
</g>
<!-- legendTitle -->
<g id="node6" class="node">
<title>legendTitle</title>
<text xml:space="preserve" text-anchor="middle" x="84.12" y="-105.58" font-family="Arial Bold" font-size="14.00">Complete MDE Pipeline</text>
</g>
</g>
</svg>
