<?xml version="1.0" encoding="UTF-8" standalone="no"?>
<!DOCTYPE svg PUBLIC "-//W3C//DTD SVG 1.1//EN"
 "http://www.w3.org/Graphics/SVG/1.1/DTD/svg11.dtd">
<!-- Generated by graphviz version 14.1.1 (20251213.1925)
 -->
<!-- Title: CrossFormatIntegration Pages: 1 -->
<svg width="508pt" height="208pt"
 viewBox="0.00 0.00 508.00 208.00" xmlns="http://www.w3.org/2000/svg" xmlns:xlink="http://www.w3.org/1999/xlink">
<g id="graph0" class="graph" transform="scale(1 1) rotate(0) translate(4 203.5)">
<title>CrossFormatIntegration</title>
<polygon fill="white" stroke="none" points="-4,4 -4,-203.5 504.49,-203.5 504.49,4 -4,4"/>
<g id="clust1" class="cluster">
<title>cluster_formats</title>
<path fill="#e8f4f8" stroke="black" d="M110.11,-114.5C110.11,-114.5 300.11,-114.5 300.11,-114.5 306.11,-114.5 312.11,-120.5 312.11,-126.5 312.11,-126.5 312.11,-179.5 312.11,-179.5 312.11,-185.5 306.11,-191.5 300.11,-191.5 300.11,-191.5 110.11,-191.5 110.11,-191.5 104.11,-191.5 98.11,-185.5 98.11,-179.5 98.11,-179.5 98.11,-126.5 98.11,-126.5 98.11,-120.5 104.11,-114.5 110.11,-114.5"/>
<text xml:space="preserve" text-anchor="middle" x="205.11" y="-174.2" font-family="Times,serif" font-size="14.00">Format Ecosystem</text>
</g>
<g id="clust2" class="cluster">
<title>cluster_tools</title>
<path fill="#fff8e8" stroke="black" d="M20.11,-8C20.11,-8 230.11,-8 230.11,-8 236.11,-8 242.11,-14 242.11,-20 242.11,-20 242.11,-72.5 242.11,-72.5 242.11,-78.5 236.11,-84.5 230.11,-84.5 230.11,-84.5 20.11,-84.5 20.11,-84.5 14.11,-84.5 8.11,-78.5 8.11,-72.5 8.11,-72.5 8.11,-20 8.11,-20 8.11,-14 14.11,-8 20.11,-8"/>
<text xml:space="preserve" text-anchor="middle" x="125.11" y="-67.2" font-family="Times,serif" font-size="14.00">Transformation Tools</text>
</g>
<!-- xmi -->
<g id="node1" class="node">
<title>xmi</title>
<polygon fill="#f8f4e8" stroke="black" points="160.11,-159 110.11,-159 106.11,-155 106.11,-122.5 156.11,-122.5 160.11,-126.5 160.11,-159"/>
<polyline fill="none" stroke="black" points="156.11,-155 106.11,-155"/>
<polyline fill="none" stroke="black" points="156.11,-155 156.11,-122.5"/>
<polyline fill="none" stroke="black" points="156.11,-155 160.11,-159"/>
<text xml:space="preserve" text-anchor="middle" x="133.11" y="-143.6" font-family="Arial" font-size="12.00">XMI</text>
<text xml:space="preserve" text-anchor="middle" x="133.11" y="-129.35" font-family="Arial" font-size="12.00">(.xmi)</text>
</g>
<!-- atl -->
<g id="node4" class="node">
<title>atl</title>
<ellipse fill="none" stroke="black" cx="43.11" cy="-34" rx="27" ry="18"/>
<text xml:space="preserve" text-anchor="middle" x="43.11" y="-29.73" font-family="Arial" font-size="12.00">ATL</text>
</g>
<!-- xmi&#45;&gt;atl -->
<g id="edge5" class="edge">
<title>xmi&#45;&gt;atl</title>
<path fill="none" stroke="black" d="M105.81,-136.13C71.91,-131.02 17.04,-120.48 4.86,-104.5 -6.58,-89.48 5.2,-70.62 18.61,-56.33"/>
<polygon fill="black" stroke="black" points="20.8,-59.09 25.46,-49.58 15.88,-54.11 20.8,-59.09"/>
<text xml:space="preserve" text-anchor="middle" x="25.49" y="-95" font-family="Arial" font-size="10.00">transform</text>
</g>
<!-- mtl -->
<g id="node5" class="node">
<title>mtl</title>
<ellipse fill="none" stroke="black" cx="115.11" cy="-34" rx="27" ry="18"/>
<text xml:space="preserve" text-anchor="middle" x="115.11" y="-29.73" font-family="Arial" font-size="12.00">MTL</text>
</g>
<!-- xmi&#45;&gt;mtl -->
<g id="edge7" class="edge">
<title>xmi&#45;&gt;mtl</title>
<path fill="none" stroke="black" d="M107.68,-122.08C102.39,-117.07 97.53,-111.14 94.61,-104.5 88.45,-90.51 92.76,-74.14 98.98,-60.81"/>
<polygon fill="black" stroke="black" points="101.95,-62.68 103.52,-52.2 95.76,-59.42 101.95,-62.68"/>
<text xml:space="preserve" text-anchor="middle" x="113.36" y="-95" font-family="Arial" font-size="10.00">generate</text>
</g>
<!-- convert -->
<g id="node6" class="node">
<title>convert</title>
<ellipse fill="none" stroke="black" cx="197.11" cy="-34" rx="36.89" ry="18"/>
<text xml:space="preserve" text-anchor="middle" x="197.11" y="-29.73" font-family="Arial" font-size="12.00">Convert</text>
</g>
<!-- xmi&#45;&gt;convert -->
<g id="edge1" class="edge">
<title>xmi&#45;&gt;convert</title>
<path fill="none" stroke="black" d="M145.34,-122.35C149.2,-116.72 153.42,-110.4 157.11,-104.5 165.86,-90.54 175.07,-74.63 182.45,-61.56"/>
<polygon fill="black" stroke="black" points="185.35,-63.54 187.18,-53.1 179.25,-60.12 185.35,-63.54"/>
<text xml:space="preserve" text-anchor="middle" x="183.1" y="-95" font-family="Arial" font-size="10.00">to JSON</text>
</g>
<!-- json -->
<g id="node2" class="node">
<title>json</title>
<polygon fill="#e8f8f5" stroke="black" points="304.11,-159 254.11,-159 250.11,-155 250.11,-122.5 300.11,-122.5 304.11,-126.5 304.11,-159"/>
<polyline fill="none" stroke="black" points="300.11,-155 250.11,-155"/>
<polyline fill="none" stroke="black" points="300.11,-155 300.11,-122.5"/>
<polyline fill="none" stroke="black" points="300.11,-155 304.11,-159"/>
<text xml:space="preserve" text-anchor="middle" x="277.11" y="-143.6" font-family="Arial" font-size="12.00">JSON</text>
<text xml:space="preserve" text-anchor="middle" x="277.11" y="-129.35" font-family="Arial" font-size="12.00">(.json)</text>
</g>
<!-- json&#45;&gt;convert -->
<g id="edge3" class="edge">
<title>json&#45;&gt;convert</title>
<path fill="none" stroke="black" d="M264.73,-122.09C258.37,-113.15 250.44,-102.16 243.11,-92.5 234.83,-81.59 225.42,-69.73 217.27,-59.64"/>
<polygon fill="black" stroke="black" points="220.19,-57.68 211.18,-52.11 214.75,-62.09 220.19,-57.68"/>
<text xml:space="preserve" text-anchor="middle" x="266.32" y="-95" font-family="Arial" font-size="10.00">to XMI</text>
</g>
<!-- swift -->
<g id="node3" class="node">
<title>swift</title>
<polygon fill="#f4e8f8" stroke="black" points="226.11,-159 178.11,-159 178.11,-122.5 232.11,-122.5 232.11,-153 226.11,-159"/>
<polyline fill="none" stroke="black" points="226.11,-159 226.11,-153"/>
<polyline fill="none" stroke="black" points="232.11,-153 226.11,-153"/>
<text xml:space="preserve" text-anchor="middle" x="205.11" y="-143.6" font-family="Arial" font-size="12.00">Swift</text>
<text xml:space="preserve" text-anchor="middle" x="205.11" y="-129.35" font-family="Arial" font-size="12.00">(.swift)</text>
</g>
<!-- atl&#45;&gt;xmi -->
<g id="edge6" class="edge">
<title>atl&#45;&gt;xmi</title>
<path fill="none" stroke="black" d="M51.74,-51.53C59.93,-66.33 73.18,-88.16 88.11,-104.5 91.35,-108.04 94.97,-111.51 98.72,-114.79"/>
<polygon fill="black" stroke="black" points="96.45,-117.46 106.39,-121.13 100.91,-112.06 96.45,-117.46"/>
</g>
<!-- mtl&#45;&gt;swift -->
<g id="edge8" class="edge">
<title>mtl&#45;&gt;swift</title>
<path fill="none" stroke="black" d="M122.74,-51.54C128.8,-62.73 138.38,-76.81 151.11,-84.5 172.26,-97.27 189.95,-73.82 206.11,-92.5 210.51,-97.59 211.99,-104.26 211.97,-110.99"/>
<polygon fill="black" stroke="black" points="208.53,-110.26 210.93,-120.58 215.49,-111.01 208.53,-110.26"/>
</g>
<!-- convert&#45;&gt;xmi -->
<g id="edge4" class="edge">
<title>convert&#45;&gt;xmi</title>
<path fill="none" stroke="black" d="M186.19,-51.46C178.7,-62.88 168.61,-78.5 160.11,-92.5 156.25,-98.86 152.21,-105.78 148.47,-112.31"/>
<polygon fill="black" stroke="black" points="145.54,-110.38 143.64,-120.8 151.63,-113.84 145.54,-110.38"/>
</g>
<!-- convert&#45;&gt;json -->
<g id="edge2" class="edge">
<title>convert&#45;&gt;json</title>
<path fill="none" stroke="black" d="M228.39,-44.06C251.35,-52.53 280.9,-67.68 295.11,-92.5 298.6,-98.6 298.15,-105.5 295.88,-112.12"/>
<polygon fill="black" stroke="black" points="292.91,-110.2 291.77,-120.74 299.23,-113.22 292.91,-110.2"/>
</g>
<!-- legendTitle -->
<g id="node7" class="node">
<title>legendTitle</title>
<text xml:space="preserve" text-anchor="middle" x="411.11" y="-135.32" font-family="Arial Bold" font-size="14.00">Cross&#45;Format Integration</text>
</g>
</g>
</svg>
