<?xml version="1.0" encoding="UTF-8" standalone="no"?>
<!DOCTYPE svg PUBLIC "-//W3C//DTD SVG 1.1//EN"
 "http://www.w3.org/Graphics/SVG/1.1/DTD/svg11.dtd">
<!-- Generated by graphviz version 14.1.1 (20251213.1925)
 -->
<!-- Title: EcommerceMetamodel Pages: 1 -->
<svg width="352pt" height="509pt"
 viewBox="0.00 0.00 352.00 509.00" xmlns="http://www.w3.org/2000/svg" xmlns:xlink="http://www.w3.org/1999/xlink">
<g id="graph0" class="graph" transform="scale(1 1) rotate(0) translate(4 504.5)">
<title>EcommerceMetamodel</title>
<polygon fill="white" stroke="none" points="-4,4 -4,-504.5 348,-504.5 348,4 -4,4"/>
<!-- shop -->
<g id="node1" class="node">
<title>shop</title>
<path fill="#e8f4f8" stroke="black" d="M12,-404.75C12,-404.75 139.75,-404.75 139.75,-404.75 145.75,-404.75 151.75,-410.75 151.75,-416.75 151.75,-416.75 151.75,-488 151.75,-488 151.75,-494 145.75,-500 139.75,-500 139.75,-500 12,-500 12,-500 6,-500 0,-494 0,-488 0,-488 0,-416.75 0,-416.75 0,-410.75 6,-404.75 12,-404.75"/>
<text xml:space="preserve" text-anchor="middle" x="75.88" y="-484.6" font-family="Arial" font-size="12.00">Shop</text>
<polyline fill="none" stroke="black" points="0,-477.75 151.75,-477.75"/>
<text xml:space="preserve" text-anchor="start" x="8" y="-462.35" font-family="Arial" font-size="12.00">+ name : String</text>
<text xml:space="preserve" text-anchor="start" x="8" y="-448.1" font-family="Arial" font-size="12.00">+ url : String</text>
<polyline fill="none" stroke="black" points="0,-441.25 151.75,-441.25"/>
<text xml:space="preserve" text-anchor="start" x="8" y="-425.85" font-family="Arial" font-size="12.00">+ products : Product[*]</text>
<text xml:space="preserve" text-anchor="start" x="8" y="-411.6" font-family="Arial" font-size="12.00">+ customers : Customer[*]</text>
</g>
<!-- product -->
<g id="node2" class="node">
<title>product</title>
<path fill="#f8f4e8" stroke="black" d="M37.88,-0.5C37.88,-0.5 113.88,-0.5 113.88,-0.5 119.88,-0.5 125.88,-6.5 125.88,-12.5 125.88,-12.5 125.88,-83.75 125.88,-83.75 125.88,-89.75 119.88,-95.75 113.88,-95.75 113.88,-95.75 37.88,-95.75 37.88,-95.75 31.88,-95.75 25.88,-89.75 25.88,-83.75 25.88,-83.75 25.88,-12.5 25.88,-12.5 25.88,-6.5 31.88,-0.5 37.88,-0.5"/>
<text xml:space="preserve" text-anchor="middle" x="75.88" y="-80.35" font-family="Arial" font-size="12.00">Product</text>
<polyline fill="none" stroke="black" points="25.88,-73.5 125.88,-73.5"/>
<text xml:space="preserve" text-anchor="start" x="33.88" y="-58.1" font-family="Arial" font-size="12.00">+ name : String</text>
<text xml:space="preserve" text-anchor="start" x="33.88" y="-43.85" font-family="Arial" font-size="12.00">+ price : Double</text>
<text xml:space="preserve" text-anchor="start" x="33.88" y="-29.6" font-family="Arial" font-size="12.00">+ stock : Int</text>
<polyline fill="none" stroke="black" points="25.88,-22.75 125.88,-22.75"/>
<text xml:space="preserve" text-anchor="middle" x="75.88" y="-7.35" font-family="Arial" font-size="12.00"> </text>
</g>
<!-- shop&#45;&gt;product -->
<g id="edge1" class="edge">
<title>shop&#45;&gt;product</title>
<path fill="none" stroke="black" d="M75.88,-404.44C75.88,-330.67 75.88,-187.71 75.88,-107.44"/>
<polygon fill="black" stroke="black" points="79.38,-107.58 75.88,-97.58 72.38,-107.58 79.38,-107.58"/>
<text xml:space="preserve" text-anchor="middle" x="94.62" y="-246.75" font-family="Arial" font-size="10.00">products</text>
</g>
<!-- customer -->
<g id="node3" class="node">
<title>customer</title>
<path fill="#e8f8f5" stroke="black" d="M104.38,-274.75C104.38,-274.75 189.38,-274.75 189.38,-274.75 195.38,-274.75 201.38,-280.75 201.38,-286.75 201.38,-286.75 201.38,-343.75 201.38,-343.75 201.38,-349.75 195.38,-355.75 189.38,-355.75 189.38,-355.75 104.38,-355.75 104.38,-355.75 98.38,-355.75 92.38,-349.75 92.38,-343.75 92.38,-343.75 92.38,-286.75 92.38,-286.75 92.38,-280.75 98.38,-274.75 104.38,-274.75"/>
<text xml:space="preserve" text-anchor="middle" x="146.88" y="-340.35" font-family="Arial" font-size="12.00">Customer</text>
<polyline fill="none" stroke="black" points="92.38,-333.5 201.38,-333.5"/>
<text xml:space="preserve" text-anchor="start" x="100.38" y="-318.1" font-family="Arial" font-size="12.00">+ name : String</text>
<text xml:space="preserve" text-anchor="start" x="100.38" y="-303.85" font-family="Arial" font-size="12.00">+ email : String</text>
<polyline fill="none" stroke="black" points="92.38,-297 201.38,-297"/>
<text xml:space="preserve" text-anchor="start" x="100.38" y="-281.6" font-family="Arial" font-size="12.00">+ orders : Order[*]</text>
</g>
<!-- shop&#45;&gt;customer -->
<g id="edge2" class="edge">
<title>shop&#45;&gt;customer</title>
<path fill="none" stroke="black" d="M100.51,-404.49C107.08,-391.98 114.21,-378.43 120.85,-365.78"/>
<polygon fill="black" stroke="black" points="123.8,-367.69 125.35,-357.21 117.6,-364.43 123.8,-367.69"/>
<text xml:space="preserve" text-anchor="middle" x="138.5" y="-376.75" font-family="Arial" font-size="10.00">customers</text>
</g>
<!-- order -->
<g id="node4" class="node">
<title>order</title>
<path fill="#f4e8f8" stroke="black" d="M99.75,-144.75C99.75,-144.75 202,-144.75 202,-144.75 208,-144.75 214,-150.75 214,-156.75 214,-156.75 214,-213.75 214,-213.75 214,-219.75 208,-225.75 202,-225.75 202,-225.75 99.75,-225.75 99.75,-225.75 93.75,-225.75 87.75,-219.75 87.75,-213.75 87.75,-213.75 87.75,-156.75 87.75,-156.75 87.75,-150.75 93.75,-144.75 99.75,-144.75"/>
<text xml:space="preserve" text-anchor="middle" x="150.88" y="-210.35" font-family="Arial" font-size="12.00">Order</text>
<polyline fill="none" stroke="black" points="87.75,-203.5 214,-203.5"/>
<text xml:space="preserve" text-anchor="start" x="95.75" y="-188.1" font-family="Arial" font-size="12.00">+ date : Date</text>
<text xml:space="preserve" text-anchor="start" x="95.75" y="-173.85" font-family="Arial" font-size="12.00">+ total : Double</text>
<polyline fill="none" stroke="black" points="87.75,-167 214,-167"/>
<text xml:space="preserve" text-anchor="start" x="95.75" y="-151.6" font-family="Arial" font-size="12.00">+ items : OrderItem[*]</text>
</g>
<!-- customer&#45;&gt;order -->
<g id="edge3" class="edge">
<title>customer&#45;&gt;order</title>
<path fill="none" stroke="black" d="M148.12,-274.45C148.49,-262.65 148.9,-249.57 149.28,-237.16"/>
<polygon fill="black" stroke="black" points="152.77,-237.64 149.58,-227.54 145.77,-237.42 152.77,-237.64"/>
<text xml:space="preserve" text-anchor="middle" x="162.49" y="-246.75" font-family="Arial" font-size="10.00">orders</text>
</g>
<!-- order&#45;&gt;product -->
<g id="edge4" class="edge">
<title>order&#45;&gt;product</title>
<path fill="none" stroke="black" stroke-dasharray="5,2" d="M128.78,-144.44C122.03,-132.28 114.48,-118.67 107.23,-105.62"/>
<polygon fill="black" stroke="black" points="110.43,-104.16 102.51,-97.12 104.3,-107.56 110.43,-104.16"/>
<text xml:space="preserve" text-anchor="middle" x="129.87" y="-116.75" font-family="Arial" font-size="10.00">items</text>
</g>
<!-- legendTitle -->
<g id="node5" class="node">
<title>legendTitle</title>
<text xml:space="preserve" text-anchor="middle" x="256.88" y="-446.95" font-family="Arial Bold" font-size="14.00">E&#45;commerce Metamodel</text>
</g>
</g>
</svg>
