<?xml version="1.0" encoding="UTF-8" standalone="no"?>
<!DOCTYPE svg PUBLIC "-//W3C//DTD SVG 1.1//EN"
 "http://www.w3.org/Graphics/SVG/1.1/DTD/svg11.dtd">
<!-- Generated by graphviz version 14.1.1 (20251213.1925)
 -->
<!-- Title: EcoreMetamodeling Pages: 1 -->
<svg width="1219pt" height="178pt"
 viewBox="0.00 0.00 1219.00 178.00" xmlns="http://www.w3.org/2000/svg" xmlns:xlink="http://www.w3.org/1999/xlink">
<g id="graph0" class="graph" transform="scale(1 1) rotate(0) translate(4 173.51)">
<title>EcoreMetamodeling</title>
<polygon fill="white" stroke="none" points="-4,4 -4,-173.51 1215.5,-173.51 1215.5,4 -4,4"/>
<!-- metamodel -->
<g id="node1" class="node">
<title>metamodel</title>
<path fill="#e8f4f8" stroke="black" d="M320.75,-47.68C320.75,-47.68 221.5,-47.68 221.5,-47.68 215.5,-47.68 209.5,-41.68 209.5,-35.68 209.5,-35.68 209.5,-20.18 209.5,-20.18 209.5,-14.18 215.5,-8.18 221.5,-8.18 221.5,-8.18 320.75,-8.18 320.75,-8.18 326.75,-8.18 332.75,-14.18 332.75,-20.18 332.75,-20.18 332.75,-35.68 332.75,-35.68 332.75,-41.68 326.75,-47.68 320.75,-47.68"/>
<text xml:space="preserve" text-anchor="middle" x="271.12" y="-30.38" font-family="Arial" font-size="14.00">Ecore Metamodel</text>
<text xml:space="preserve" text-anchor="middle" x="271.12" y="-14.63" font-family="Arial" font-size="14.00">(.ecore)</text>
</g>
<!-- instances -->
<g id="node3" class="node">
<title>instances</title>
<ellipse fill="none" stroke="black" cx="482.4" cy="-27.93" rx="52.15" ry="27.93"/>
<text xml:space="preserve" text-anchor="middle" x="482.4" y="-30.38" font-family="Arial" font-size="14.00">Model</text>
<text xml:space="preserve" text-anchor="middle" x="482.4" y="-14.63" font-family="Arial" font-size="14.00">Instances</text>
</g>
<!-- metamodel&#45;&gt;instances -->
<g id="edge2" class="edge">
<title>metamodel&#45;&gt;instances</title>
<path fill="none" stroke="black" d="M333.22,-27.93C360.03,-27.93 391.49,-27.93 418.5,-27.93"/>
<polygon fill="black" stroke="black" points="418.27,-31.43 428.27,-27.93 418.27,-24.43 418.27,-31.43"/>
<text xml:space="preserve" text-anchor="middle" x="381.5" y="-30.38" font-family="Arial" font-size="14.00">instantiate</text>
</g>
<!-- create -->
<g id="node2" class="node">
<title>create</title>
<ellipse fill="none" stroke="black" cx="68.38" cy="-27.93" rx="59.57" ry="27.93"/>
<text xml:space="preserve" text-anchor="middle" x="68.38" y="-30.38" font-family="Arial" font-size="14.00">Create</text>
<text xml:space="preserve" text-anchor="middle" x="68.38" y="-14.63" font-family="Arial" font-size="14.00">Metamodel</text>
</g>
<!-- create&#45;&gt;metamodel -->
<g id="edge1" class="edge">
<title>create&#45;&gt;metamodel</title>
<path fill="none" stroke="black" d="M128.25,-27.93C150.02,-27.93 174.96,-27.93 197.79,-27.93"/>
<polygon fill="black" stroke="black" points="197.65,-31.43 207.65,-27.93 197.65,-24.43 197.65,-31.43"/>
<text xml:space="preserve" text-anchor="middle" x="173.12" y="-30.38" font-family="Arial" font-size="14.00">define</text>
</g>
<!-- xmi -->
<g id="node7" class="node">
<title>xmi</title>
<path fill="#e8f8f5" stroke="black" d="M696.8,-96.68C696.8,-96.68 632.05,-96.68 632.05,-96.68 626.05,-96.68 620.05,-90.68 620.05,-84.68 620.05,-84.68 620.05,-69.18 620.05,-69.18 620.05,-63.18 626.05,-57.18 632.05,-57.18 632.05,-57.18 696.8,-57.18 696.8,-57.18 702.8,-57.18 708.8,-63.18 708.8,-69.18 708.8,-69.18 708.8,-84.68 708.8,-84.68 708.8,-90.68 702.8,-96.68 696.8,-96.68"/>
<text xml:space="preserve" text-anchor="middle" x="664.42" y="-79.38" font-family="Arial" font-size="14.00">XMI Models</text>
<text xml:space="preserve" text-anchor="middle" x="664.42" y="-63.63" font-family="Arial" font-size="14.00">(.xmi)</text>
</g>
<!-- instances&#45;&gt;xmi -->
<g id="edge3" class="edge">
<title>instances&#45;&gt;xmi</title>
<path fill="none" stroke="black" d="M529.29,-40.42C553.52,-47.02 583.42,-55.15 608.83,-62.07"/>
<polygon fill="black" stroke="black" points="607.76,-65.41 618.32,-64.66 609.59,-58.65 607.76,-65.41"/>
<text xml:space="preserve" text-anchor="middle" x="577.3" y="-62.13" font-family="Arial" font-size="14.00">serialise</text>
</g>
<!-- json -->
<g id="node8" class="node">
<title>json</title>
<path fill="#e8f8f5" stroke="black" d="M1071.99,-119.68C1071.99,-119.68 995.24,-119.68 995.24,-119.68 989.24,-119.68 983.24,-113.68 983.24,-107.68 983.24,-107.68 983.24,-92.18 983.24,-92.18 983.24,-86.18 989.24,-80.18 995.24,-80.18 995.24,-80.18 1071.99,-80.18 1071.99,-80.18 1077.99,-80.18 1083.99,-86.18 1083.99,-92.18 1083.99,-92.18 1083.99,-107.68 1083.99,-107.68 1083.99,-113.68 1077.99,-119.68 1071.99,-119.68"/>
<text xml:space="preserve" text-anchor="middle" x="1033.61" y="-102.38" font-family="Arial" font-size="14.00">JSON Models</text>
<text xml:space="preserve" text-anchor="middle" x="1033.61" y="-86.63" font-family="Arial" font-size="14.00">(.json)</text>
</g>
<!-- instances&#45;&gt;json -->
<g id="edge4" class="edge">
<title>instances&#45;&gt;json</title>
<path fill="none" stroke="black" d="M534.09,-23.4C623.52,-17.09 814.14,-11.29 965.24,-58.93 976,-62.32 986.81,-67.78 996.53,-73.62"/>
<polygon fill="black" stroke="black" points="994.61,-76.55 1004.93,-78.96 998.37,-70.64 994.61,-76.55"/>
<text xml:space="preserve" text-anchor="middle" x="755.67" y="-27.08" font-family="Arial" font-size="14.00">serialise</text>
</g>
<!-- validate -->
<g id="node4" class="node">
<title>validate</title>
<ellipse fill="none" stroke="black" cx="1166.24" cy="-56.93" rx="45.25" ry="27.93"/>
<text xml:space="preserve" text-anchor="middle" x="1166.24" y="-59.38" font-family="Arial" font-size="14.00">Validate</text>
<text xml:space="preserve" text-anchor="middle" x="1166.24" y="-43.63" font-family="Arial" font-size="14.00">Models</text>
</g>
<!-- convert -->
<g id="node5" class="node">
<title>convert</title>
<ellipse fill="none" stroke="black" cx="849.39" cy="-105.93" rx="46.85" ry="27.93"/>
<text xml:space="preserve" text-anchor="middle" x="849.39" y="-108.38" font-family="Arial" font-size="14.00">Convert</text>
<text xml:space="preserve" text-anchor="middle" x="849.39" y="-92.63" font-family="Arial" font-size="14.00">Formats</text>
</g>
<!-- convert&#45;&gt;json -->
<g id="edge7" class="edge">
<title>convert&#45;&gt;json</title>
<path fill="none" stroke="black" d="M896.38,-104.42C919.13,-103.67 946.91,-102.75 971.43,-101.95"/>
<polygon fill="black" stroke="black" points="971.42,-105.45 981.29,-101.62 971.18,-98.45 971.42,-105.45"/>
</g>
<!-- query -->
<g id="node6" class="node">
<title>query</title>
<ellipse fill="none" stroke="black" cx="1166.24" cy="-136.93" rx="42.6" ry="27.93"/>
<text xml:space="preserve" text-anchor="middle" x="1166.24" y="-139.38" font-family="Arial" font-size="14.00">Query</text>
<text xml:space="preserve" text-anchor="middle" x="1166.24" y="-123.63" font-family="Arial" font-size="14.00">Models</text>
</g>
<!-- xmi&#45;&gt;validate -->
<g id="edge5" class="edge">
<title>xmi&#45;&gt;validate</title>
<path fill="none" stroke="black" d="M709.25,-74.09C736.17,-72.42 771.34,-70.36 802.55,-68.93 911.05,-63.97 1037.91,-60.25 1109.19,-58.35"/>
<polygon fill="black" stroke="black" points="1109.14,-61.85 1119.05,-58.09 1108.96,-54.85 1109.14,-61.85"/>
<text xml:space="preserve" text-anchor="middle" x="939.74" y="-66.74" font-family="Arial" font-size="14.00">check</text>
</g>
<!-- xmi&#45;&gt;convert -->
<g id="edge6" class="edge">
<title>xmi&#45;&gt;convert</title>
<path fill="none" stroke="black" d="M709.25,-83.88C734.23,-87.84 765.78,-92.84 792.52,-97.08"/>
<polygon fill="black" stroke="black" points="791.73,-100.49 802.16,-98.6 792.83,-93.58 791.73,-100.49"/>
<text xml:space="preserve" text-anchor="middle" x="755.67" y="-98.17" font-family="Arial" font-size="14.00">transform</text>
</g>
<!-- xmi&#45;&gt;query -->
<g id="edge9" class="edge">
<title>xmi&#45;&gt;query</title>
<path fill="none" stroke="black" d="M694.31,-97.16C704.32,-103.66 715.79,-110.56 726.8,-115.93 758.92,-131.61 767.33,-136.84 802.55,-142.93 911.59,-161.78 1041.82,-151.93 1112.78,-143.89"/>
<polygon fill="black" stroke="black" points="1113.04,-147.39 1122.56,-142.75 1112.22,-140.43 1113.04,-147.39"/>
<text xml:space="preserve" text-anchor="middle" x="939.74" y="-156.21" font-family="Arial" font-size="14.00">navigate</text>
</g>
<!-- json&#45;&gt;validate -->
<g id="edge8" class="edge">
<title>json&#45;&gt;validate</title>
<path fill="none" stroke="black" d="M1084.37,-83.55C1094.43,-80.24 1105.02,-76.76 1115.09,-73.44"/>
<polygon fill="black" stroke="black" points="1115.93,-76.85 1124.34,-70.4 1113.74,-70.2 1115.93,-76.85"/>
</g>
<!-- json&#45;&gt;query -->
<g id="edge10" class="edge">
<title>json&#45;&gt;query</title>
<path fill="none" stroke="black" d="M1084.37,-114.02C1094.65,-116.93 1105.46,-120 1115.73,-122.9"/>
<polygon fill="black" stroke="black" points="1114.56,-126.21 1125.14,-125.57 1116.47,-119.48 1114.56,-126.21"/>
</g>
<!-- legendTitle -->
<g id="node9" class="node">
<title>legendTitle</title>
<text xml:space="preserve" text-anchor="middle" x="68.38" y="-86.11" font-family="Arial Bold" font-size="16.00">Ecore Workflow</text>
</g>
</g>
</svg>
