<?xml version="1.0" encoding="UTF-8" standalone="no"?>
<!DOCTYPE svg PUBLIC "-//W3C//DTD SVG 1.1//EN"
 "http://www.w3.org/Graphics/SVG/1.1/DTD/svg11.dtd">
<!-- Generated by graphviz version 14.1.1 (20251213.1925)
 -->
<!-- Title: FormatEcosystem Pages: 1 -->
<svg width="365pt" height="129pt"
 viewBox="0.00 0.00 365.00 129.00" xmlns="http://www.w3.org/2000/svg" xmlns:xlink="http://www.w3.org/1999/xlink">
<g id="graph0" class="graph" transform="scale(1 1) rotate(0) translate(4 124.5)">
<title>FormatEcosystem</title>
<polygon fill="white" stroke="none" points="-4,4 -4,-124.5 360.91,-124.5 360.91,4 -4,4"/>
<!-- center -->
<g id="node1" class="node">
<title>center</title>
<polygon fill="#e8f4f8" stroke="black" points="174.97,-120.5 103.72,-120.5 99.72,-116.5 99.72,-84 170.97,-84 174.97,-88 174.97,-120.5"/>
<polyline fill="none" stroke="black" points="170.97,-116.5 99.72,-116.5"/>
<polyline fill="none" stroke="black" points="170.97,-116.5 170.97,-84"/>
<polyline fill="none" stroke="black" points="170.97,-116.5 174.97,-120.5"/>
<text xml:space="preserve" text-anchor="middle" x="137.34" y="-105.1" font-family="Arial" font-size="12.00">Ecore</text>
<text xml:space="preserve" text-anchor="middle" x="137.34" y="-90.85" font-family="Arial" font-size="12.00">Metamodel</text>
</g>
<!-- xmi -->
<g id="node2" class="node">
<title>xmi</title>
<polygon fill="#f8f4e8" stroke="black" points="58.34,-36 4.34,-36 4.34,0 58.34,0 58.34,-36"/>
<text xml:space="preserve" text-anchor="middle" x="31.34" y="-13.72" font-family="Arial" font-size="12.00">XMI</text>
</g>
<!-- center&#45;&gt;xmi -->
<g id="edge1" class="edge">
<title>center&#45;&gt;xmi</title>
<path fill="none" stroke="black" d="M99.24,-96.43C63.88,-91.08 15.02,-81.15 3.34,-66 -1.6,-59.59 -0.15,-52.23 3.99,-45.28"/>
<polygon fill="black" stroke="black" points="6.75,-47.44 10.03,-37.36 1.18,-43.19 6.75,-47.44"/>
<text xml:space="preserve" text-anchor="middle" x="21.34" y="-56.5" font-family="Arial" font-size="10.00">serialize</text>
</g>
<!-- json -->
<g id="node3" class="node">
<title>json</title>
<polygon fill="#e8f8f5" stroke="black" points="147.34,-36 93.34,-36 93.34,0 147.34,0 147.34,-36"/>
<text xml:space="preserve" text-anchor="middle" x="120.34" y="-13.72" font-family="Arial" font-size="12.00">JSON</text>
</g>
<!-- center&#45;&gt;json -->
<g id="edge2" class="edge">
<title>center&#45;&gt;json</title>
<path fill="none" stroke="black" d="M119.63,-83.66C115.44,-78.41 111.56,-72.35 109.34,-66 107.24,-59.97 107.36,-53.36 108.58,-47.05"/>
<polygon fill="black" stroke="black" points="111.88,-48.25 111.27,-37.67 105.15,-46.32 111.88,-48.25"/>
<text xml:space="preserve" text-anchor="middle" x="127.34" y="-56.5" font-family="Arial" font-size="10.00">serialize</text>
</g>
<!-- swift -->
<g id="node4" class="node">
<title>swift</title>
<polygon fill="#f4e8f8" stroke="black" points="245.59,-36 177.09,-36 177.09,0 251.59,0 251.59,-30 245.59,-36"/>
<polyline fill="none" stroke="black" points="245.59,-36 245.59,-30"/>
<polyline fill="none" stroke="black" points="251.59,-30 245.59,-30"/>
<text xml:space="preserve" text-anchor="middle" x="214.34" y="-13.72" font-family="Arial" font-size="12.00">Swift Code</text>
</g>
<!-- center&#45;&gt;swift -->
<g id="edge3" class="edge">
<title>center&#45;&gt;swift</title>
<path fill="none" stroke="black" d="M157.14,-83.79C163.15,-78.26 169.65,-72.01 175.34,-66 181.6,-59.39 188.04,-51.94 193.84,-44.94"/>
<polygon fill="black" stroke="black" points="196.22,-47.56 199.83,-37.6 190.79,-43.14 196.22,-47.56"/>
<text xml:space="preserve" text-anchor="middle" x="204.2" y="-56.5" font-family="Arial" font-size="10.00">generate</text>
</g>
<!-- validate -->
<g id="node5" class="node">
<title>validate</title>
<ellipse fill="#fff8e8" stroke="black" cx="313.34" cy="-18" rx="43.57" ry="18"/>
<text xml:space="preserve" text-anchor="middle" x="313.34" y="-13.72" font-family="Arial" font-size="12.00">Validation</text>
</g>
<!-- center&#45;&gt;validate -->
<g id="edge4" class="edge">
<title>center&#45;&gt;validate</title>
<path fill="none" stroke="black" d="M175.05,-87.03C195.11,-79.36 217.61,-70.54 227.34,-66 244.92,-57.79 263.9,-47.57 279.55,-38.76"/>
<polygon fill="black" stroke="black" points="281.03,-41.95 287.99,-33.96 277.57,-35.86 281.03,-41.95"/>
<text xml:space="preserve" text-anchor="middle" x="264.57" y="-56.5" font-family="Arial" font-size="10.00">check</text>
</g>
<!-- xmi&#45;&gt;center -->
<g id="edge5" class="edge">
<title>xmi&#45;&gt;center</title>
<path fill="none" stroke="black" d="M46.93,-36.08C55.93,-45.46 67.74,-56.98 79.34,-66 84.53,-70.03 90.21,-73.97 95.92,-77.68"/>
<polygon fill="black" stroke="black" points="93.86,-80.52 104.19,-82.87 97.57,-74.59 93.86,-80.52"/>
<text xml:space="preserve" text-anchor="middle" x="91.34" y="-56.5" font-family="Arial" font-size="10.00">parse</text>
</g>
<!-- json&#45;&gt;center -->
<g id="edge6" class="edge">
<title>json&#45;&gt;center</title>
<path fill="none" stroke="black" d="M135.92,-36.35C139.76,-41.65 143.34,-47.74 145.34,-54 147.28,-60.04 147.35,-66.68 146.5,-73.01"/>
<polygon fill="black" stroke="black" points="143.16,-71.92 144.49,-82.43 150,-73.38 143.16,-71.92"/>
<text xml:space="preserve" text-anchor="middle" x="159.02" y="-56.5" font-family="Arial" font-size="10.00">parse</text>
</g>
<!-- legendTitle -->
<g id="node6" class="node">
<title>legendTitle</title>
<text xml:space="preserve" text-anchor="middle" x="262.34" y="-96.83" font-family="Arial Bold" font-size="14.00">Format Ecosystem</text>
</g>
</g>
</svg>
