<?xml version="1.0" encoding="UTF-8" standalone="no"?>
<!DOCTYPE svg PUBLIC "-//W3C//DTD SVG 1.1//EN"
 "http://www.w3.org/Graphics/SVG/1.1/DTD/svg11.dtd">
<!-- Generated by graphviz version 14.1.1 (20251213.1925)
 -->
<!-- Title: IntegratedWorkflows Pages: 1 -->
<svg width="368pt" height="524pt"
 viewBox="0.00 0.00 368.00 524.00" xmlns="http://www.w3.org/2000/svg" xmlns:xlink="http://www.w3.org/1999/xlink">
<g id="graph0" class="graph" transform="scale(1 1) rotate(0) translate(4 519.5)">
<title>IntegratedWorkflows</title>
<polygon fill="white" stroke="none" points="-4,4 -4,-519.5 363.5,-519.5 363.5,4 -4,4"/>
<g id="clust1" class="cluster">
<title>cluster_workflow</title>
<path fill="#e8f4f8" stroke="black" d="M20,-8C20,-8 158,-8 158,-8 164,-8 170,-14 170,-20 170,-20 170,-495.5 170,-495.5 170,-501.5 164,-507.5 158,-507.5 158,-507.5 20,-507.5 20,-507.5 14,-507.5 8,-501.5 8,-495.5 8,-495.5 8,-20 8,-20 8,-14 14,-8 20,-8"/>
<text xml:space="preserve" text-anchor="middle" x="89" y="-490.2" font-family="Times,serif" font-size="14.00">Complete MDE Workflow</text>
</g>
<!-- metamodel -->
<g id="node1" class="node">
<title>metamodel</title>
<polygon fill="#f8f4e8" stroke="black" points="119.62,-475 48.38,-475 44.38,-471 44.38,-438.5 115.62,-438.5 119.62,-442.5 119.62,-475"/>
<polyline fill="none" stroke="black" points="115.62,-471 44.38,-471"/>
<polyline fill="none" stroke="black" points="115.62,-471 115.62,-438.5"/>
<polyline fill="none" stroke="black" points="115.62,-471 119.62,-475"/>
<text xml:space="preserve" text-anchor="middle" x="82" y="-459.6" font-family="Arial" font-size="12.00">Ecore</text>
<text xml:space="preserve" text-anchor="middle" x="82" y="-445.35" font-family="Arial" font-size="12.00">Metamodel</text>
</g>
<!-- source -->
<g id="node2" class="node">
<title>source</title>
<polygon fill="#e8f8f5" stroke="black" points="85.12,-390.5 34.88,-390.5 30.88,-386.5 30.88,-354 81.12,-354 85.12,-358 85.12,-390.5"/>
<polyline fill="none" stroke="black" points="81.12,-386.5 30.88,-386.5"/>
<polyline fill="none" stroke="black" points="81.12,-386.5 81.12,-354"/>
<polyline fill="none" stroke="black" points="81.12,-386.5 85.12,-390.5"/>
<text xml:space="preserve" text-anchor="middle" x="58" y="-375.1" font-family="Arial" font-size="12.00">Source</text>
<text xml:space="preserve" text-anchor="middle" x="58" y="-360.85" font-family="Arial" font-size="12.00">Model</text>
</g>
<!-- metamodel&#45;&gt;source -->
<g id="edge1" class="edge">
<title>metamodel&#45;&gt;source</title>
<path fill="none" stroke="black" d="M63.82,-438.23C59.52,-432.98 55.53,-426.9 53.25,-420.5 51.19,-414.73 50.73,-408.32 51.11,-402.14"/>
<polygon fill="black" stroke="black" points="54.58,-402.63 52.48,-392.25 47.64,-401.67 54.58,-402.63"/>
<text xml:space="preserve" text-anchor="middle" x="79.12" y="-411" font-family="Arial" font-size="10.00">conforms to</text>
</g>
<!-- target -->
<g id="node4" class="node">
<title>target</title>
<polygon fill="#e8f8f5" stroke="black" points="137,-221.5 87,-221.5 83,-217.5 83,-185 133,-185 137,-189 137,-221.5"/>
<polyline fill="none" stroke="black" points="133,-217.5 83,-217.5"/>
<polyline fill="none" stroke="black" points="133,-217.5 133,-185"/>
<polyline fill="none" stroke="black" points="133,-217.5 137,-221.5"/>
<text xml:space="preserve" text-anchor="middle" x="110" y="-206.1" font-family="Arial" font-size="12.00">Target</text>
<text xml:space="preserve" text-anchor="middle" x="110" y="-191.85" font-family="Arial" font-size="12.00">Model</text>
</g>
<!-- metamodel&#45;&gt;target -->
<g id="edge2" class="edge">
<title>metamodel&#45;&gt;target</title>
<path fill="none" stroke="black" stroke-dasharray="5,2" d="M95.56,-438.28C99.16,-432.84 102.69,-426.66 105,-420.5 133.33,-344.88 133.17,-319.34 121,-239.5 120.67,-237.31 120.22,-235.08 119.71,-232.84"/>
<polygon fill="black" stroke="black" points="123.13,-232.09 117.07,-223.39 116.39,-233.97 123.13,-232.09"/>
<text xml:space="preserve" text-anchor="middle" x="154.48" y="-326.5" font-family="Arial" font-size="10.00">conforms to</text>
</g>
<!-- atl -->
<g id="node3" class="node">
<title>atl</title>
<polygon fill="#f4e8f8" stroke="black" points="105.75,-306 16.25,-306 16.25,-269.5 111.75,-269.5 111.75,-300 105.75,-306"/>
<polyline fill="none" stroke="black" points="105.75,-306 105.75,-300"/>
<polyline fill="none" stroke="black" points="111.75,-300 105.75,-300"/>
<text xml:space="preserve" text-anchor="middle" x="64" y="-290.6" font-family="Arial" font-size="12.00">ATL</text>
<text xml:space="preserve" text-anchor="middle" x="64" y="-276.35" font-family="Arial" font-size="12.00">Transformation</text>
</g>
<!-- source&#45;&gt;atl -->
<g id="edge3" class="edge">
<title>source&#45;&gt;atl</title>
<path fill="none" stroke="black" d="M59.27,-353.75C60.04,-343.25 61.03,-329.64 61.9,-317.58"/>
<polygon fill="black" stroke="black" points="65.38,-317.96 62.62,-307.73 58.4,-317.45 65.38,-317.96"/>
<text xml:space="preserve" text-anchor="middle" x="71.86" y="-326.5" font-family="Arial" font-size="10.00">input</text>
</g>
<!-- atl&#45;&gt;target -->
<g id="edge4" class="edge">
<title>atl&#45;&gt;target</title>
<path fill="none" stroke="black" d="M73.76,-269.25C79.85,-258.32 87.84,-244 94.76,-231.58"/>
<polygon fill="black" stroke="black" points="97.71,-233.48 99.52,-223.04 91.59,-230.07 97.71,-233.48"/>
<text xml:space="preserve" text-anchor="middle" x="103.25" y="-242" font-family="Arial" font-size="10.00">output</text>
</g>
<!-- mtl -->
<g id="node5" class="node">
<title>mtl</title>
<polygon fill="#f4e8f8" stroke="black" points="136.38,-137 77.62,-137 77.62,-100.5 142.38,-100.5 142.38,-131 136.38,-137"/>
<polyline fill="none" stroke="black" points="136.38,-137 136.38,-131"/>
<polyline fill="none" stroke="black" points="142.38,-131 136.38,-131"/>
<text xml:space="preserve" text-anchor="middle" x="110" y="-121.6" font-family="Arial" font-size="12.00">MTL</text>
<text xml:space="preserve" text-anchor="middle" x="110" y="-107.35" font-family="Arial" font-size="12.00">Template</text>
</g>
<!-- target&#45;&gt;mtl -->
<g id="edge5" class="edge">
<title>target&#45;&gt;mtl</title>
<path fill="none" stroke="black" d="M110,-184.75C110,-174.25 110,-160.64 110,-148.58"/>
<polygon fill="black" stroke="black" points="113.5,-148.73 110,-138.73 106.5,-148.73 113.5,-148.73"/>
<text xml:space="preserve" text-anchor="middle" x="120.5" y="-157.5" font-family="Arial" font-size="10.00">input</text>
</g>
<!-- code -->
<g id="node6" class="node">
<title>code</title>
<polygon fill="#fff8e8" stroke="black" points="140.12,-52.5 73.88,-52.5 73.88,-16 146.12,-16 146.12,-46.5 140.12,-52.5"/>
<polyline fill="none" stroke="black" points="140.12,-52.5 140.12,-46.5"/>
<polyline fill="none" stroke="black" points="146.12,-46.5 140.12,-46.5"/>
<text xml:space="preserve" text-anchor="middle" x="110" y="-37.1" font-family="Arial" font-size="12.00">Generated</text>
<text xml:space="preserve" text-anchor="middle" x="110" y="-22.85" font-family="Arial" font-size="12.00">Code</text>
</g>
<!-- mtl&#45;&gt;code -->
<g id="edge6" class="edge">
<title>mtl&#45;&gt;code</title>
<path fill="none" stroke="black" d="M110,-100.25C110,-89.75 110,-76.14 110,-64.08"/>
<polygon fill="black" stroke="black" points="113.5,-64.23 110,-54.23 106.5,-64.23 113.5,-64.23"/>
<text xml:space="preserve" text-anchor="middle" x="123.5" y="-73" font-family="Arial" font-size="10.00">output</text>
</g>
<!-- legendTitle -->
<g id="node7" class="node">
<title>legendTitle</title>
<text xml:space="preserve" text-anchor="middle" x="269" y="-451.32" font-family="Arial Bold" font-size="14.00">Integrated MDE Workflow</text>
</g>
</g>
</svg>
