<?xml version="1.0" encoding="UTF-8" standalone="no"?>
<!DOCTYPE svg PUBLIC "-//W3C//DTD SVG 1.1//EN"
 "http://www.w3.org/Graphics/SVG/1.1/DTD/svg11.dtd">
<!-- Generated by graphviz version 14.1.1 (20251213.1925)
 -->
<!-- Title: LegacyModelAnalysis Pages: 1 -->
<svg width="346pt" height="461pt"
 viewBox="0.00 0.00 346.00 461.00" xmlns="http://www.w3.org/2000/svg" xmlns:xlink="http://www.w3.org/1999/xlink">
<g id="graph0" class="graph" transform="scale(1 1) rotate(0) translate(4 457.36)">
<title>LegacyModelAnalysis</title>
<polygon fill="white" stroke="none" points="-4,4 -4,-457.36 342.25,-457.36 342.25,4 -4,4"/>
<g id="clust1" class="cluster">
<title>cluster_legacy</title>
<path fill="#f8f4e8" stroke="black" d="M78,-368.36C78,-368.36 154,-368.36 154,-368.36 160,-368.36 166,-374.36 166,-380.36 166,-380.36 166,-433.36 166,-433.36 166,-439.36 160,-445.36 154,-445.36 154,-445.36 78,-445.36 78,-445.36 72,-445.36 66,-439.36 66,-433.36 66,-433.36 66,-380.36 66,-380.36 66,-374.36 72,-368.36 78,-368.36"/>
<text xml:space="preserve" text-anchor="middle" x="116" y="-428.06" font-family="Times,serif" font-size="14.00">Legacy System</text>
</g>
<g id="clust2" class="cluster">
<title>cluster_analysis</title>
<path fill="#e8f4f8" stroke="black" d="M72,-93C72,-93 159,-93 159,-93 165,-93 171,-99 171,-105 171,-105 171,-348.36 171,-348.36 171,-354.36 165,-360.36 159,-360.36 159,-360.36 72,-360.36 72,-360.36 66,-360.36 60,-354.36 60,-348.36 60,-348.36 60,-105 60,-105 60,-99 66,-93 72,-93"/>
<text xml:space="preserve" text-anchor="middle" x="115.5" y="-343.06" font-family="Times,serif" font-size="14.00">Analysis Pipeline</text>
</g>
<g id="clust3" class="cluster">
<title>cluster_output</title>
<path fill="#e8f8f5" stroke="black" d="M20,-8C20,-8 222,-8 222,-8 228,-8 234,-14 234,-20 234,-20 234,-73 234,-73 234,-79 228,-85 222,-85 222,-85 20,-85 20,-85 14,-85 8,-79 8,-73 8,-73 8,-20 8,-20 8,-14 14,-8 20,-8"/>
<text xml:space="preserve" text-anchor="middle" x="121" y="-67.7" font-family="Times,serif" font-size="14.00">Outputs</text>
</g>
<!-- legacy -->
<g id="node1" class="node">
<title>legacy</title>
<polygon fill="none" stroke="black" points="142.5,-412.86 91.5,-412.86 87.5,-408.86 87.5,-376.36 138.5,-376.36 142.5,-380.36 142.5,-412.86"/>
<polyline fill="none" stroke="black" points="138.5,-408.86 87.5,-408.86"/>
<polyline fill="none" stroke="black" points="138.5,-408.86 138.5,-376.36"/>
<polyline fill="none" stroke="black" points="138.5,-408.86 142.5,-412.86"/>
<text xml:space="preserve" text-anchor="middle" x="115" y="-397.46" font-family="Arial" font-size="12.00">Legacy</text>
<text xml:space="preserve" text-anchor="middle" x="115" y="-383.21" font-family="Arial" font-size="12.00">Models</text>
</g>
<!-- validate -->
<g id="node2" class="node">
<title>validate</title>
<ellipse fill="none" stroke="black" cx="115" cy="-302.05" rx="45.25" ry="25.81"/>
<text xml:space="preserve" text-anchor="middle" x="115" y="-304.9" font-family="Arial" font-size="12.00">Validate</text>
<text xml:space="preserve" text-anchor="middle" x="115" y="-290.65" font-family="Arial" font-size="12.00">Structure</text>
</g>
<!-- legacy&#45;&gt;validate -->
<g id="edge1" class="edge">
<title>legacy&#45;&gt;validate</title>
<path fill="none" stroke="black" d="M115,-376.15C115,-365.76 115,-352.18 115,-339.55"/>
<polygon fill="black" stroke="black" points="118.5,-339.85 115,-329.85 111.5,-339.85 118.5,-339.85"/>
</g>
<!-- analyse -->
<g id="node3" class="node">
<title>analyse</title>
<ellipse fill="none" stroke="black" cx="115" cy="-214.43" rx="42.6" ry="25.81"/>
<text xml:space="preserve" text-anchor="middle" x="115" y="-217.28" font-family="Arial" font-size="12.00">Analyse</text>
<text xml:space="preserve" text-anchor="middle" x="115" y="-203.03" font-family="Arial" font-size="12.00">Patterns</text>
</g>
<!-- validate&#45;&gt;analyse -->
<g id="edge2" class="edge">
<title>validate&#45;&gt;analyse</title>
<path fill="none" stroke="black" d="M115,-275.82C115,-268.33 115,-259.97 115,-251.92"/>
<polygon fill="black" stroke="black" points="118.5,-251.99 115,-241.99 111.5,-251.99 118.5,-251.99"/>
</g>
<!-- report -->
<g id="node4" class="node">
<title>report</title>
<ellipse fill="none" stroke="black" cx="115" cy="-126.81" rx="46.32" ry="25.81"/>
<text xml:space="preserve" text-anchor="middle" x="115" y="-129.66" font-family="Arial" font-size="12.00">Generate</text>
<text xml:space="preserve" text-anchor="middle" x="115" y="-115.41" font-family="Arial" font-size="12.00">Report</text>
</g>
<!-- analyse&#45;&gt;report -->
<g id="edge3" class="edge">
<title>analyse&#45;&gt;report</title>
<path fill="none" stroke="black" d="M115,-188.2C115,-180.71 115,-172.35 115,-164.3"/>
<polygon fill="black" stroke="black" points="118.5,-164.37 115,-154.37 111.5,-164.37 118.5,-164.37"/>
</g>
<!-- issues -->
<g id="node5" class="node">
<title>issues</title>
<polygon fill="none" stroke="black" points="64,-52.5 16,-52.5 16,-16 70,-16 70,-46.5 64,-52.5"/>
<polyline fill="none" stroke="black" points="64,-52.5 64,-46.5"/>
<polyline fill="none" stroke="black" points="70,-46.5 64,-46.5"/>
<text xml:space="preserve" text-anchor="middle" x="43" y="-37.1" font-family="Arial" font-size="12.00">Issues</text>
<text xml:space="preserve" text-anchor="middle" x="43" y="-22.85" font-family="Arial" font-size="12.00">Log</text>
</g>
<!-- report&#45;&gt;issues -->
<g id="edge4" class="edge">
<title>report&#45;&gt;issues</title>
<path fill="none" stroke="black" d="M94.42,-103.26C89.27,-97.41 83.84,-91.05 79,-85 73.1,-77.62 66.97,-69.39 61.48,-61.79"/>
<polygon fill="black" stroke="black" points="64.46,-59.94 55.81,-53.82 58.76,-64 64.46,-59.94"/>
</g>
<!-- metrics -->
<g id="node6" class="node">
<title>metrics</title>
<polygon fill="none" stroke="black" points="136.12,-52.5 87.88,-52.5 87.88,-16 142.12,-16 142.12,-46.5 136.12,-52.5"/>
<polyline fill="none" stroke="black" points="136.12,-52.5 136.12,-46.5"/>
<polyline fill="none" stroke="black" points="142.12,-46.5 136.12,-46.5"/>
<text xml:space="preserve" text-anchor="middle" x="115" y="-37.1" font-family="Arial" font-size="12.00">Quality</text>
<text xml:space="preserve" text-anchor="middle" x="115" y="-22.85" font-family="Arial" font-size="12.00">Metrics</text>
</g>
<!-- report&#45;&gt;metrics -->
<g id="edge5" class="edge">
<title>report&#45;&gt;metrics</title>
<path fill="none" stroke="black" d="M115,-100.58C115,-89.32 115,-75.98 115,-64.3"/>
<polygon fill="black" stroke="black" points="118.5,-64.4 115,-54.4 111.5,-64.4 118.5,-64.4"/>
</g>
<!-- migration -->
<g id="node7" class="node">
<title>migration</title>
<polygon fill="none" stroke="black" points="219.75,-52.5 160.25,-52.5 160.25,-16 225.75,-16 225.75,-46.5 219.75,-52.5"/>
<polyline fill="none" stroke="black" points="219.75,-52.5 219.75,-46.5"/>
<polyline fill="none" stroke="black" points="225.75,-46.5 219.75,-46.5"/>
<text xml:space="preserve" text-anchor="middle" x="193" y="-37.1" font-family="Arial" font-size="12.00">Migration</text>
<text xml:space="preserve" text-anchor="middle" x="193" y="-22.85" font-family="Arial" font-size="12.00">Plan</text>
</g>
<!-- report&#45;&gt;migration -->
<g id="edge6" class="edge">
<title>report&#45;&gt;migration</title>
<path fill="none" stroke="black" d="M134.89,-103.43C140.16,-97.47 145.81,-91.01 151,-85 157.58,-77.37 164.67,-69.03 171.12,-61.39"/>
<polygon fill="black" stroke="black" points="173.59,-63.89 177.35,-53.99 168.23,-59.38 173.59,-63.89"/>
</g>
<!-- legendTitle -->
<g id="node8" class="node">
<title>legendTitle</title>
<text xml:space="preserve" text-anchor="middle" x="256" y="-389.18" font-family="Arial Bold" font-size="14.00">Legacy Model Analysis</text>
</g>
</g>
</svg>
