<?xml version="1.0" encoding="UTF-8" standalone="no"?>
<!DOCTYPE svg PUBLIC "-//W3C//DTD SVG 1.1//EN"
 "http://www.w3.org/Graphics/SVG/1.1/DTD/svg11.dtd">
<!-- Generated by graphviz version 14.1.1 (20251213.1925)
 -->
<!-- Title: ModelRefactoringPipeline Pages: 1 -->
<svg width="815pt" height="137pt"
 viewBox="0.00 0.00 815.00 137.00" xmlns="http://www.w3.org/2000/svg" xmlns:xlink="http://www.w3.org/1999/xlink">
<g id="graph0" class="graph" transform="scale(1 1) rotate(0) translate(4 133)">
<title>ModelRefactoringPipeline</title>
<polygon fill="white" stroke="none" points="-4,4 -4,-133 810.72,-133 810.72,4 -4,4"/>
<g id="clust1" class="cluster">
<title>cluster_input</title>
<path fill="#f8f4e8" stroke="black" d="M71.5,-8C71.5,-8 118.5,-8 118.5,-8 124.5,-8 130.5,-14 130.5,-20 130.5,-20 130.5,-73 130.5,-73 130.5,-79 124.5,-85 118.5,-85 118.5,-85 71.5,-85 71.5,-85 65.5,-85 59.5,-79 59.5,-73 59.5,-73 59.5,-20 59.5,-20 59.5,-14 65.5,-8 71.5,-8"/>
<text xml:space="preserve" text-anchor="middle" x="95" y="-67.7" font-family="Times,serif" font-size="14.00">Input</text>
</g>
<g id="clust2" class="cluster">
<title>cluster_refactor</title>
<path fill="#e8f4f8" stroke="black" d="M230,-8C230,-8 685.22,-8 685.22,-8 691.22,-8 697.22,-14 697.22,-20 697.22,-20 697.22,-73 697.22,-73 697.22,-79 691.22,-85 685.22,-85 685.22,-85 230,-85 230,-85 224,-85 218,-79 218,-73 218,-73 218,-20 218,-20 218,-14 224,-8 230,-8"/>
<text xml:space="preserve" text-anchor="middle" x="457.61" y="-67.7" font-family="Times,serif" font-size="14.00">Refactoring Steps</text>
</g>
<g id="clust3" class="cluster">
<title>cluster_output</title>
<path fill="#e8f8f5" stroke="black" d="M729.22,-8C729.22,-8 786.72,-8 786.72,-8 792.72,-8 798.72,-14 798.72,-20 798.72,-20 798.72,-73 798.72,-73 798.72,-79 792.72,-85 786.72,-85 786.72,-85 729.22,-85 729.22,-85 723.22,-85 717.22,-79 717.22,-73 717.22,-73 717.22,-20 717.22,-20 717.22,-14 723.22,-8 729.22,-8"/>
<text xml:space="preserve" text-anchor="middle" x="757.97" y="-67.7" font-family="Times,serif" font-size="14.00">Output</text>
</g>
<!-- legacy -->
<g id="node1" class="node">
<title>legacy</title>
<polygon fill="none" stroke="black" points="122.5,-52.25 71.5,-52.25 67.5,-48.25 67.5,-15.75 118.5,-15.75 122.5,-19.75 122.5,-52.25"/>
<polyline fill="none" stroke="black" points="118.5,-48.25 67.5,-48.25"/>
<polyline fill="none" stroke="black" points="118.5,-48.25 118.5,-15.75"/>
<polyline fill="none" stroke="black" points="118.5,-48.25 122.5,-52.25"/>
<text xml:space="preserve" text-anchor="middle" x="95" y="-36.85" font-family="Arial" font-size="12.00">Legacy</text>
<text xml:space="preserve" text-anchor="middle" x="95" y="-22.6" font-family="Arial" font-size="12.00">Model</text>
</g>
<!-- analyse -->
<g id="node2" class="node">
<title>analyse</title>
<ellipse fill="none" stroke="black" cx="271.95" cy="-34" rx="45.95" ry="18"/>
<text xml:space="preserve" text-anchor="middle" x="271.95" y="-29.73" font-family="Arial" font-size="12.00">1. Analyse</text>
</g>
<!-- legacy&#45;&gt;analyse -->
<g id="edge1" class="edge">
<title>legacy&#45;&gt;analyse</title>
<path fill="none" stroke="black" d="M122.95,-34C147.18,-34 183.54,-34 214.16,-34"/>
<polygon fill="black" stroke="black" points="214.07,-37.5 224.07,-34 214.07,-30.5 214.07,-37.5"/>
</g>
<!-- plan -->
<g id="node3" class="node">
<title>plan</title>
<ellipse fill="none" stroke="black" cx="387.93" cy="-34" rx="34.03" ry="18"/>
<text xml:space="preserve" text-anchor="middle" x="387.93" y="-29.73" font-family="Arial" font-size="12.00">2. Plan</text>
</g>
<!-- analyse&#45;&gt;plan -->
<g id="edge2" class="edge">
<title>analyse&#45;&gt;plan</title>
<path fill="none" stroke="black" d="M318.33,-34C326.25,-34 334.49,-34 342.39,-34"/>
<polygon fill="black" stroke="black" points="342.14,-37.5 352.14,-34 342.14,-30.5 342.14,-37.5"/>
</g>
<!-- transform -->
<g id="node4" class="node">
<title>transform</title>
<ellipse fill="none" stroke="black" cx="510.11" cy="-34" rx="52.15" ry="18"/>
<text xml:space="preserve" text-anchor="middle" x="510.11" y="-29.73" font-family="Arial" font-size="12.00">3. Transform</text>
</g>
<!-- plan&#45;&gt;transform -->
<g id="edge3" class="edge">
<title>plan&#45;&gt;transform</title>
<path fill="none" stroke="black" d="M422.41,-34C429.95,-34 438.2,-34 446.51,-34"/>
<polygon fill="black" stroke="black" points="446.31,-37.5 456.31,-34 446.31,-30.5 446.31,-37.5"/>
</g>
<!-- validate -->
<g id="node5" class="node">
<title>validate</title>
<ellipse fill="none" stroke="black" cx="643.74" cy="-34" rx="45.48" ry="18"/>
<text xml:space="preserve" text-anchor="middle" x="643.74" y="-29.73" font-family="Arial" font-size="12.00">4. Validate</text>
</g>
<!-- transform&#45;&gt;validate -->
<g id="edge4" class="edge">
<title>transform&#45;&gt;validate</title>
<path fill="none" stroke="black" d="M562.76,-34C570.6,-34 578.72,-34 586.65,-34"/>
<polygon fill="black" stroke="black" points="586.56,-37.5 596.56,-34 586.56,-30.5 586.56,-37.5"/>
</g>
<!-- improved -->
<g id="node6" class="node">
<title>improved</title>
<polygon fill="none" stroke="black" points="790.72,-52.25 729.22,-52.25 725.22,-48.25 725.22,-15.75 786.72,-15.75 790.72,-19.75 790.72,-52.25"/>
<polyline fill="none" stroke="black" points="786.72,-48.25 725.22,-48.25"/>
<polyline fill="none" stroke="black" points="786.72,-48.25 786.72,-15.75"/>
<polyline fill="none" stroke="black" points="786.72,-48.25 790.72,-52.25"/>
<text xml:space="preserve" text-anchor="middle" x="757.97" y="-36.85" font-family="Arial" font-size="12.00">Improved</text>
<text xml:space="preserve" text-anchor="middle" x="757.97" y="-22.6" font-family="Arial" font-size="12.00">Model</text>
</g>
<!-- validate&#45;&gt;improved -->
<g id="edge5" class="edge">
<title>validate&#45;&gt;improved</title>
<path fill="none" stroke="black" d="M689.42,-34C697.39,-34 705.68,-34 713.61,-34"/>
<polygon fill="black" stroke="black" points="713.37,-37.5 723.37,-34 713.37,-30.5 713.37,-37.5"/>
</g>
<!-- legendTitle -->
<g id="node7" class="node">
<title>legendTitle</title>
<text xml:space="preserve" text-anchor="middle" x="95" y="-105.58" font-family="Arial Bold" font-size="14.00">Model Refactoring Pipeline</text>
</g>
</g>
</svg>
