<?xml version="1.0" encoding="UTF-8" standalone="no"?>
<!DOCTYPE svg PUBLIC "-//W3C//DTD SVG 1.1//EN"
 "http://www.w3.org/Graphics/SVG/1.1/DTD/svg11.dtd">
<!-- Generated by graphviz version 14.1.1 (20251213.1925)
 -->
<!-- Title: MTLAQLWorkflow Pages: 1 -->
<svg width="492pt" height="151pt"
 viewBox="0.00 0.00 492.00 151.00" xmlns="http://www.w3.org/2000/svg" xmlns:xlink="http://www.w3.org/1999/xlink">
<g id="graph0" class="graph" transform="scale(1 1) rotate(0) translate(4 147.25)">
<title>MTLAQLWorkflow</title>
<polygon fill="white" stroke="none" points="-4,4 -4,-147.25 488.42,-147.25 488.42,4 -4,4"/>
<g id="clust1" class="cluster">
<title>cluster_mtl</title>
<path fill="#f8f4e8" stroke="black" d="M215,-45.25C215,-45.25 464.42,-45.25 464.42,-45.25 470.42,-45.25 476.42,-51.25 476.42,-57.25 476.42,-57.25 476.42,-111.25 476.42,-111.25 476.42,-117.25 470.42,-123.25 464.42,-123.25 464.42,-123.25 215,-123.25 215,-123.25 209,-123.25 203,-117.25 203,-111.25 203,-111.25 203,-57.25 203,-57.25 203,-51.25 209,-45.25 215,-45.25"/>
<text xml:space="preserve" text-anchor="middle" x="339.71" y="-105.95" font-family="Times,serif" font-size="14.00">MTL Template</text>
</g>
<!-- model -->
<g id="node1" class="node">
<title>model</title>
<polygon fill="#e8f4f8" stroke="black" points="107.5,-89.5 50.5,-89.5 46.5,-85.5 46.5,-53 103.5,-53 107.5,-57 107.5,-89.5"/>
<polyline fill="none" stroke="black" points="103.5,-85.5 46.5,-85.5"/>
<polyline fill="none" stroke="black" points="103.5,-85.5 103.5,-53"/>
<polyline fill="none" stroke="black" points="103.5,-85.5 107.5,-89.5"/>
<text xml:space="preserve" text-anchor="middle" x="77" y="-74.1" font-family="Arial" font-size="12.00">Model</text>
<text xml:space="preserve" text-anchor="middle" x="77" y="-59.85" font-family="Arial" font-size="12.00">Instance</text>
</g>
<!-- template -->
<g id="node2" class="node">
<title>template</title>
<polygon fill="none" stroke="black" points="281.75,-89.25 211,-89.25 211,-53.25 287.75,-53.25 287.75,-83.25 281.75,-89.25"/>
<polyline fill="none" stroke="black" points="281.75,-89.25 281.75,-83.25"/>
<polyline fill="none" stroke="black" points="287.75,-83.25 281.75,-83.25"/>
<text xml:space="preserve" text-anchor="middle" x="249.38" y="-66.97" font-family="Arial" font-size="12.00">[template...]</text>
</g>
<!-- model&#45;&gt;template -->
<g id="edge1" class="edge">
<title>model&#45;&gt;template</title>
<path fill="none" stroke="black" d="M107.68,-71.25C132.93,-71.25 169.7,-71.25 199.32,-71.25"/>
<polygon fill="black" stroke="black" points="199.18,-74.75 209.18,-71.25 199.18,-67.75 199.18,-74.75"/>
<text xml:space="preserve" text-anchor="middle" x="182.5" y="-73.75" font-family="Arial" font-size="10.00">input</text>
</g>
<!-- aql -->
<g id="node3" class="node">
<title>aql</title>
<ellipse fill="#e8f8f5" stroke="black" cx="414.83" cy="-72.25" rx="53.58" ry="18"/>
<text xml:space="preserve" text-anchor="middle" x="414.83" y="-67.97" font-family="Arial" font-size="12.00">AQL Queries</text>
</g>
<!-- template&#45;&gt;aql -->
<g id="edge2" class="edge">
<title>template&#45;&gt;aql</title>
<path fill="none" stroke="black" stroke-dasharray="5,2" d="M287.88,-71.48C306.17,-71.59 328.69,-71.73 349.61,-71.86"/>
<polygon fill="black" stroke="black" points="349.49,-75.36 359.51,-71.92 349.53,-68.36 349.49,-75.36"/>
<text xml:space="preserve" text-anchor="middle" x="324.5" y="-74.31" font-family="Arial" font-size="10.00">navigate</text>
</g>
<!-- output -->
<g id="node4" class="node">
<title>output</title>
<polygon fill="#f4e8f8" stroke="black" points="444.96,-36.5 378.71,-36.5 378.71,0 450.96,0 450.96,-30.5 444.96,-36.5"/>
<polyline fill="none" stroke="black" points="444.96,-36.5 444.96,-30.5"/>
<polyline fill="none" stroke="black" points="450.96,-30.5 444.96,-30.5"/>
<text xml:space="preserve" text-anchor="middle" x="414.83" y="-21.1" font-family="Arial" font-size="12.00">Generated</text>
<text xml:space="preserve" text-anchor="middle" x="414.83" y="-6.85" font-family="Arial" font-size="12.00">Output</text>
</g>
<!-- template&#45;&gt;output -->
<g id="edge4" class="edge">
<title>template&#45;&gt;output</title>
<path fill="none" stroke="black" d="M287.88,-59.09C311.6,-51.4 342.45,-41.4 367.68,-33.22"/>
<polygon fill="black" stroke="black" points="368.6,-36.6 377.03,-30.18 366.44,-29.94 368.6,-36.6"/>
<text xml:space="preserve" text-anchor="middle" x="324.5" y="-55.09" font-family="Arial" font-size="10.00">generate</text>
</g>
<!-- aql&#45;&gt;template -->
<g id="edge3" class="edge">
<title>aql&#45;&gt;template</title>
<path fill="none" stroke="black" stroke-dasharray="5,2" d="M368.6,-81.84C349.24,-84.76 326.38,-86.64 305.75,-84.25 303.58,-84 301.37,-83.69 299.15,-83.35"/>
<polygon fill="black" stroke="black" points="299.96,-79.94 289.49,-81.58 298.7,-86.82 299.96,-79.94"/>
</g>
<!-- legendTitle -->
<g id="node5" class="node">
<title>legendTitle</title>
<text xml:space="preserve" text-anchor="middle" x="77" y="-119.83" font-family="Arial Bold" font-size="14.00">MTL + AQL Workflow</text>
</g>
</g>
</svg>
