<?xml version="1.0" encoding="UTF-8" standalone="no"?>
<!DOCTYPE svg PUBLIC "-//W3C//DTD SVG 1.1//EN"
 "http://www.w3.org/Graphics/SVG/1.1/DTD/svg11.dtd">
<!-- Generated by graphviz version 14.1.1 (20251213.1925)
 -->
<!-- Title: MTLCodeGeneration Pages: 1 -->
<svg width="913pt" height="184pt"
 viewBox="0.00 0.00 913.00 184.00" xmlns="http://www.w3.org/2000/svg" xmlns:xlink="http://www.w3.org/1999/xlink">
<g id="graph0" class="graph" transform="scale(1 1) rotate(0) translate(4 179.93)">
<title>MTLCodeGeneration</title>
<polygon fill="white" stroke="none" points="-4,4 -4,-179.93 909.03,-179.93 909.03,4 -4,4"/>
<!-- template -->
<g id="node1" class="node">
<title>template</title>
<path fill="#e8f4f8" stroke="black" d="M130.75,-121.68C130.75,-121.68 51.75,-121.68 51.75,-121.68 45.75,-121.68 39.75,-115.68 39.75,-109.68 39.75,-109.68 39.75,-94.18 39.75,-94.18 39.75,-88.18 45.75,-82.18 51.75,-82.18 51.75,-82.18 130.75,-82.18 130.75,-82.18 136.75,-82.18 142.75,-88.18 142.75,-94.18 142.75,-94.18 142.75,-109.68 142.75,-109.68 142.75,-115.68 136.75,-121.68 130.75,-121.68"/>
<text xml:space="preserve" text-anchor="middle" x="91.25" y="-104.38" font-family="Arial" font-size="14.00">MTL Template</text>
<text xml:space="preserve" text-anchor="middle" x="91.25" y="-88.63" font-family="Arial" font-size="14.00">(.mtl)</text>
</g>
<!-- parse -->
<g id="node3" class="node">
<title>parse</title>
<ellipse fill="none" stroke="black" cx="333.56" cy="-101.93" rx="50.56" ry="27.93"/>
<text xml:space="preserve" text-anchor="middle" x="333.56" y="-104.38" font-family="Arial" font-size="14.00">Parse</text>
<text xml:space="preserve" text-anchor="middle" x="333.56" y="-88.63" font-family="Arial" font-size="14.00">Template</text>
</g>
<!-- template&#45;&gt;parse -->
<g id="edge1" class="edge">
<title>template&#45;&gt;parse</title>
<path fill="none" stroke="black" d="M143.21,-101.93C180.71,-101.93 231.84,-101.93 271.51,-101.93"/>
<polygon fill="black" stroke="black" points="271.39,-105.43 281.39,-101.93 271.39,-98.43 271.39,-105.43"/>
<text xml:space="preserve" text-anchor="middle" x="232.75" y="-104.38" font-family="Arial" font-size="14.00">read</text>
</g>
<!-- model -->
<g id="node2" class="node">
<title>model</title>
<path fill="#e8f4f8" stroke="black" d="M133.38,-47.68C133.38,-47.68 49.12,-47.68 49.12,-47.68 43.12,-47.68 37.12,-41.68 37.12,-35.68 37.12,-35.68 37.12,-20.18 37.12,-20.18 37.12,-14.18 43.12,-8.18 49.12,-8.18 49.12,-8.18 133.38,-8.18 133.38,-8.18 139.38,-8.18 145.38,-14.18 145.38,-20.18 145.38,-20.18 145.38,-35.68 145.38,-35.68 145.38,-41.68 139.38,-47.68 133.38,-47.68"/>
<text xml:space="preserve" text-anchor="middle" x="91.25" y="-30.38" font-family="Arial" font-size="14.00">Model Instance</text>
<text xml:space="preserve" text-anchor="middle" x="91.25" y="-14.63" font-family="Arial" font-size="14.00">(.xmi/.json)</text>
</g>
<!-- load -->
<g id="node4" class="node">
<title>load</title>
<ellipse fill="none" stroke="black" cx="333.56" cy="-27.93" rx="37.83" ry="27.93"/>
<text xml:space="preserve" text-anchor="middle" x="333.56" y="-30.38" font-family="Arial" font-size="14.00">Load</text>
<text xml:space="preserve" text-anchor="middle" x="333.56" y="-14.63" font-family="Arial" font-size="14.00">Model</text>
</g>
<!-- model&#45;&gt;load -->
<g id="edge2" class="edge">
<title>model&#45;&gt;load</title>
<path fill="none" stroke="black" d="M145.58,-27.93C186.99,-27.93 243.92,-27.93 284.05,-27.93"/>
<polygon fill="black" stroke="black" points="283.9,-31.43 293.9,-27.93 283.9,-24.43 283.9,-31.43"/>
<text xml:space="preserve" text-anchor="middle" x="232.75" y="-30.38" font-family="Arial" font-size="14.00">deserialise</text>
</g>
<!-- generate -->
<g id="node5" class="node">
<title>generate</title>
<ellipse fill="none" stroke="black" cx="522.74" cy="-63.93" rx="51.62" ry="27.93"/>
<text xml:space="preserve" text-anchor="middle" x="522.74" y="-66.38" font-family="Arial" font-size="14.00">Generate</text>
<text xml:space="preserve" text-anchor="middle" x="522.74" y="-50.63" font-family="Arial" font-size="14.00">Code</text>
</g>
<!-- parse&#45;&gt;generate -->
<g id="edge3" class="edge">
<title>parse&#45;&gt;generate</title>
<path fill="none" stroke="black" d="M381.31,-92.44C406.04,-87.42 436.64,-81.21 462.97,-75.86"/>
<polygon fill="black" stroke="black" points="463.37,-79.35 472.47,-73.93 461.97,-72.49 463.37,-79.35"/>
<text xml:space="preserve" text-anchor="middle" x="427.62" y="-89.9" font-family="Arial" font-size="14.00">execute</text>
</g>
<!-- load&#45;&gt;generate -->
<g id="edge4" class="edge">
<title>load&#45;&gt;generate</title>
<path fill="none" stroke="black" d="M370.65,-34.87C396.65,-39.87 432.31,-46.73 462.46,-52.53"/>
<polygon fill="black" stroke="black" points="461.75,-55.96 472.23,-54.41 463.07,-49.08 461.75,-55.96"/>
<text xml:space="preserve" text-anchor="middle" x="427.62" y="-52.66" font-family="Arial" font-size="14.00">navigate</text>
</g>
<!-- write -->
<g id="node6" class="node">
<title>write</title>
<ellipse fill="none" stroke="black" cx="681.44" cy="-63.93" rx="33.59" ry="27.93"/>
<text xml:space="preserve" text-anchor="middle" x="681.44" y="-66.38" font-family="Arial" font-size="14.00">Write</text>
<text xml:space="preserve" text-anchor="middle" x="681.44" y="-50.63" font-family="Arial" font-size="14.00">Files</text>
</g>
<!-- generate&#45;&gt;write -->
<g id="edge5" class="edge">
<title>generate&#45;&gt;write</title>
<path fill="none" stroke="black" d="M574.61,-63.93C594.45,-63.93 616.97,-63.93 636.13,-63.93"/>
<polygon fill="black" stroke="black" points="636.05,-67.43 646.05,-63.93 636.05,-60.43 636.05,-67.43"/>
<text xml:space="preserve" text-anchor="middle" x="611.1" y="-66.38" font-family="Arial" font-size="14.00">output</text>
</g>
<!-- code -->
<g id="node7" class="node">
<title>code</title>
<path fill="#e8f8f5" stroke="black" d="M893.03,-83.68C893.03,-83.68 800.53,-83.68 800.53,-83.68 794.53,-83.68 788.53,-77.68 788.53,-71.68 788.53,-71.68 788.53,-56.18 788.53,-56.18 788.53,-50.18 794.53,-44.18 800.53,-44.18 800.53,-44.18 893.03,-44.18 893.03,-44.18 899.03,-44.18 905.03,-50.18 905.03,-56.18 905.03,-56.18 905.03,-71.68 905.03,-71.68 905.03,-77.68 899.03,-83.68 893.03,-83.68"/>
<text xml:space="preserve" text-anchor="middle" x="846.78" y="-66.38" font-family="Arial" font-size="14.00">Generated Code</text>
<text xml:space="preserve" text-anchor="middle" x="846.78" y="-50.63" font-family="Arial" font-size="14.00">(.swift/.txt)</text>
</g>
<!-- write&#45;&gt;code -->
<g id="edge6" class="edge">
<title>write&#45;&gt;code</title>
<path fill="none" stroke="black" d="M715.5,-63.93C733.2,-63.93 755.68,-63.93 776.98,-63.93"/>
<polygon fill="black" stroke="black" points="776.79,-67.43 786.79,-63.93 776.79,-60.43 776.79,-67.43"/>
<text xml:space="preserve" text-anchor="middle" x="751.78" y="-66.38" font-family="Arial" font-size="14.00">create</text>
</g>
<!-- legendTitle -->
<g id="node8" class="node">
<title>legendTitle</title>
<text xml:space="preserve" text-anchor="middle" x="91.25" y="-152.11" font-family="Arial Bold" font-size="16.00">MTL Code Generation</text>
</g>
</g>
</svg>
