<?xml version="1.0" encoding="UTF-8" standalone="no"?>
<!DOCTYPE svg PUBLIC "-//W3C//DTD SVG 1.1//EN"
 "http://www.w3.org/Graphics/SVG/1.1/DTD/svg11.dtd">
<!-- Generated by graphviz version 14.1.1 (20251213.1925)
 -->
<!-- Title: ocl_constraints Pages: 1 -->
<svg width="589pt" height="225pt"
 viewBox="0.00 0.00 589.00 225.00" xmlns="http://www.w3.org/2000/svg" xmlns:xlink="http://www.w3.org/1999/xlink">
<g id="graph0" class="graph" transform="scale(1 1) rotate(0) translate(4 221.39)">
<title>ocl_constraints</title>
<polygon fill="white" stroke="none" points="-4,4 -4,-221.39 584.5,-221.39 584.5,4 -4,4"/>
<g id="clust1" class="cluster">
<title>cluster_model</title>
<path fill="#f5f5f5" stroke="black" d="M20,-41.39C20,-41.39 133,-41.39 133,-41.39 139,-41.39 145,-47.39 145,-53.39 145,-53.39 145,-158.39 145,-158.39 145,-164.39 139,-170.39 133,-170.39 133,-170.39 20,-170.39 20,-170.39 14,-170.39 8,-164.39 8,-158.39 8,-158.39 8,-53.39 8,-53.39 8,-47.39 14,-41.39 20,-41.39"/>
<text xml:space="preserve" text-anchor="middle" x="76.5" y="-153.09" font-family="Helvetica Bold" font-size="14.00">Model Layer</text>
</g>
<g id="clust2" class="cluster">
<title>cluster_constraints</title>
<path fill="#fff8e1" stroke="black" d="M208.5,-26.39C208.5,-26.39 308.5,-26.39 308.5,-26.39 314.5,-26.39 320.5,-32.39 320.5,-38.39 320.5,-38.39 320.5,-197.39 320.5,-197.39 320.5,-203.39 314.5,-209.39 308.5,-209.39 308.5,-209.39 208.5,-209.39 208.5,-209.39 202.5,-209.39 196.5,-203.39 196.5,-197.39 196.5,-197.39 196.5,-38.39 196.5,-38.39 196.5,-32.39 202.5,-26.39 208.5,-26.39"/>
<text xml:space="preserve" text-anchor="middle" x="258.5" y="-192.09" font-family="Helvetica Bold" font-size="14.00">OCL Constraints</text>
</g>
<g id="clust3" class="cluster">
<title>cluster_validation</title>
<path fill="#e8f5e9" stroke="black" d="M353.5,-52.39C353.5,-52.39 560.5,-52.39 560.5,-52.39 566.5,-52.39 572.5,-58.39 572.5,-64.39 572.5,-64.39 572.5,-115.39 572.5,-115.39 572.5,-121.39 566.5,-127.39 560.5,-127.39 560.5,-127.39 353.5,-127.39 353.5,-127.39 347.5,-127.39 341.5,-121.39 341.5,-115.39 341.5,-115.39 341.5,-64.39 341.5,-64.39 341.5,-58.39 347.5,-52.39 353.5,-52.39"/>
<text xml:space="preserve" text-anchor="middle" x="457" y="-110.09" font-family="Helvetica Bold" font-size="14.00">Validation</text>
</g>
<!-- metamodel -->
<g id="node1" class="node">
<title>metamodel</title>
<path fill="#4a90d9" stroke="black" d="M125,-139.39C125,-139.39 28,-139.39 28,-139.39 22,-139.39 16,-133.39 16,-127.39 16,-127.39 16,-115.39 16,-115.39 16,-109.39 22,-103.39 28,-103.39 28,-103.39 125,-103.39 125,-103.39 131,-103.39 137,-109.39 137,-115.39 137,-115.39 137,-127.39 137,-127.39 137,-133.39 131,-139.39 125,-139.39"/>
<text xml:space="preserve" text-anchor="middle" x="76.5" y="-122.74" font-family="Helvetica,sans-Serif" font-size="12.00" fill="white">Metamodel</text>
<text xml:space="preserve" text-anchor="middle" x="76.5" y="-109.99" font-family="Helvetica,sans-Serif" font-size="12.00" fill="white">(EClass, EAttribute)</text>
</g>
<!-- invariants -->
<g id="node3" class="node">
<title>invariants</title>
<path fill="#ff9800" stroke="black" d="M279.88,-178.39C279.88,-178.39 236.12,-178.39 236.12,-178.39 230.12,-178.39 224.12,-172.39 224.12,-166.39 224.12,-166.39 224.12,-154.39 224.12,-154.39 224.12,-148.39 230.12,-142.39 236.12,-142.39 236.12,-142.39 279.88,-142.39 279.88,-142.39 285.88,-142.39 291.88,-148.39 291.88,-154.39 291.88,-154.39 291.88,-166.39 291.88,-166.39 291.88,-172.39 285.88,-178.39 279.88,-178.39"/>
<text xml:space="preserve" text-anchor="middle" x="258" y="-161.74" font-family="Helvetica,sans-Serif" font-size="12.00" fill="white">Invariants</text>
<text xml:space="preserve" text-anchor="middle" x="258" y="-148.99" font-family="Helvetica,sans-Serif" font-size="12.00" fill="white">(inv:)</text>
</g>
<!-- metamodel&#45;&gt;invariants -->
<g id="edge1" class="edge">
<title>metamodel&#45;&gt;invariants</title>
<path fill="none" stroke="black" d="M137.27,-134.38C161.87,-139.73 189.87,-145.81 212.61,-150.75"/>
<polygon fill="black" stroke="black" points="211.64,-154.12 222.16,-152.82 213.13,-147.28 211.64,-154.12"/>
<text xml:space="preserve" text-anchor="middle" x="170.75" y="-146.14" font-family="Helvetica,sans-Serif" font-size="10.00">defines</text>
</g>
<!-- instance -->
<g id="node2" class="node">
<title>instance</title>
<path fill="#7cb342" stroke="black" d="M113,-85.39C113,-85.39 40,-85.39 40,-85.39 34,-85.39 28,-79.39 28,-73.39 28,-73.39 28,-61.39 28,-61.39 28,-55.39 34,-49.39 40,-49.39 40,-49.39 113,-49.39 113,-49.39 119,-49.39 125,-55.39 125,-61.39 125,-61.39 125,-73.39 125,-73.39 125,-79.39 119,-85.39 113,-85.39"/>
<text xml:space="preserve" text-anchor="middle" x="76.5" y="-68.74" font-family="Helvetica,sans-Serif" font-size="12.00">Model Instance</text>
<text xml:space="preserve" text-anchor="middle" x="76.5" y="-55.99" font-family="Helvetica,sans-Serif" font-size="12.00">(Objects)</text>
</g>
<!-- validator -->
<g id="node6" class="node">
<title>validator</title>
<path fill="#43a047" stroke="black" d="M408.25,-96.39C408.25,-96.39 361.5,-96.39 361.5,-96.39 355.5,-96.39 349.5,-90.39 349.5,-84.39 349.5,-84.39 349.5,-72.39 349.5,-72.39 349.5,-66.39 355.5,-60.39 361.5,-60.39 361.5,-60.39 408.25,-60.39 408.25,-60.39 414.25,-60.39 420.25,-66.39 420.25,-72.39 420.25,-72.39 420.25,-84.39 420.25,-84.39 420.25,-90.39 414.25,-96.39 408.25,-96.39"/>
<text xml:space="preserve" text-anchor="middle" x="384.88" y="-79.74" font-family="Helvetica,sans-Serif" font-size="12.00" fill="white">Constraint</text>
<text xml:space="preserve" text-anchor="middle" x="384.88" y="-66.99" font-family="Helvetica,sans-Serif" font-size="12.00" fill="white">Validator</text>
</g>
<!-- instance&#45;&gt;validator -->
<g id="edge2" class="edge">
<title>instance&#45;&gt;validator</title>
<path fill="none" stroke="black" d="M106.99,-49.06C153.82,-22.44 247.35,20.43 320.5,-11.14 339.35,-19.28 355.19,-36.09 366.32,-50.86"/>
<polygon fill="black" stroke="black" points="363.41,-52.81 372.06,-58.93 369.12,-48.76 363.41,-52.81"/>
<text xml:space="preserve" text-anchor="middle" x="258" y="-12.89" font-family="Helvetica,sans-Serif" font-size="10.00">validates</text>
</g>
<!-- invariants&#45;&gt;validator -->
<g id="edge3" class="edge">
<title>invariants&#45;&gt;validator</title>
<path fill="none" stroke="black" d="M292.17,-148C301.63,-143.9 311.73,-138.94 320.5,-133.39 333.52,-125.16 346.59,-114.34 357.46,-104.48"/>
<polygon fill="black" stroke="black" points="359.61,-107.26 364.55,-97.88 354.84,-102.14 359.61,-107.26"/>
</g>
<!-- preconditions -->
<g id="node4" class="node">
<title>preconditions</title>
<path fill="#ffa726" stroke="black" d="M290.75,-124.39C290.75,-124.39 225.25,-124.39 225.25,-124.39 219.25,-124.39 213.25,-118.39 213.25,-112.39 213.25,-112.39 213.25,-100.39 213.25,-100.39 213.25,-94.39 219.25,-88.39 225.25,-88.39 225.25,-88.39 290.75,-88.39 290.75,-88.39 296.75,-88.39 302.75,-94.39 302.75,-100.39 302.75,-100.39 302.75,-112.39 302.75,-112.39 302.75,-118.39 296.75,-124.39 290.75,-124.39"/>
<text xml:space="preserve" text-anchor="middle" x="258" y="-107.74" font-family="Helvetica,sans-Serif" font-size="12.00">Preconditions</text>
<text xml:space="preserve" text-anchor="middle" x="258" y="-94.99" font-family="Helvetica,sans-Serif" font-size="12.00">(pre:)</text>
</g>
<!-- preconditions&#45;&gt;validator -->
<g id="edge4" class="edge">
<title>preconditions&#45;&gt;validator</title>
<path fill="none" stroke="black" d="M303.03,-96.52C314.4,-93.97 326.67,-91.22 338.13,-88.65"/>
<polygon fill="black" stroke="black" points="338.79,-92.09 347.78,-86.49 337.26,-85.26 338.79,-92.09"/>
</g>
<!-- postconditions -->
<g id="node5" class="node">
<title>postconditions</title>
<path fill="#ffb74d" stroke="black" d="M293.38,-70.39C293.38,-70.39 222.62,-70.39 222.62,-70.39 216.62,-70.39 210.62,-64.39 210.62,-58.39 210.62,-58.39 210.62,-46.39 210.62,-46.39 210.62,-40.39 216.62,-34.39 222.62,-34.39 222.62,-34.39 293.38,-34.39 293.38,-34.39 299.38,-34.39 305.38,-40.39 305.38,-46.39 305.38,-46.39 305.38,-58.39 305.38,-58.39 305.38,-64.39 299.38,-70.39 293.38,-70.39"/>
<text xml:space="preserve" text-anchor="middle" x="258" y="-53.74" font-family="Helvetica,sans-Serif" font-size="12.00">Postconditions</text>
<text xml:space="preserve" text-anchor="middle" x="258" y="-40.99" font-family="Helvetica,sans-Serif" font-size="12.00">(post:)</text>
</g>
<!-- postconditions&#45;&gt;validator -->
<g id="edge5" class="edge">
<title>postconditions&#45;&gt;validator</title>
<path fill="none" stroke="black" d="M305.85,-62.15C316.43,-64.35 327.63,-66.68 338.16,-68.88"/>
<polygon fill="black" stroke="black" points="337.26,-72.26 347.76,-70.88 338.69,-65.41 337.26,-72.26"/>
</g>
<!-- result -->
<g id="node7" class="node">
<title>result</title>
<path fill="#66bb6a" stroke="black" d="M552.5,-96.39C552.5,-96.39 508,-96.39 508,-96.39 502,-96.39 496,-90.39 496,-84.39 496,-84.39 496,-72.39 496,-72.39 496,-66.39 502,-60.39 508,-60.39 508,-60.39 552.5,-60.39 552.5,-60.39 558.5,-60.39 564.5,-66.39 564.5,-72.39 564.5,-72.39 564.5,-84.39 564.5,-84.39 564.5,-90.39 558.5,-96.39 552.5,-96.39"/>
<text xml:space="preserve" text-anchor="middle" x="530.25" y="-79.74" font-family="Helvetica,sans-Serif" font-size="12.00">Validation</text>
<text xml:space="preserve" text-anchor="middle" x="530.25" y="-66.99" font-family="Helvetica,sans-Serif" font-size="12.00">Result</text>
</g>
<!-- validator&#45;&gt;result -->
<g id="edge6" class="edge">
<title>validator&#45;&gt;result</title>
<path fill="none" stroke="black" d="M420.58,-78.39C439.79,-78.39 463.88,-78.39 484.49,-78.39"/>
<polygon fill="black" stroke="black" points="484.34,-81.89 494.34,-78.39 484.34,-74.89 484.34,-81.89"/>
<text xml:space="preserve" text-anchor="middle" x="458.12" y="-80.14" font-family="Helvetica,sans-Serif" font-size="10.00">produces</text>
</g>
</g>
</svg>
